<svg xmlns="http://www.w3.org/2000/svg" xmlns:xlink="http://www.w3.org/1999/xlink" width="23" height="23" viewBox="0 0 23 23">
  <defs>
    <clipPath id="clip-path">
      <rect id="Rectangle_7032" data-name="Rectangle 7032" width="23" height="23" transform="translate(761 1257)" fill="#fff" stroke="#707070" stroke-width="1" opacity="0.73"/>
    </clipPath>
  </defs>
  <g id="Mask_Group_197" data-name="Mask Group 197" transform="translate(-761 -1257)" clip-path="url(#clip-path)">
    <g id="Group_48820" data-name="Group 48820" transform="translate(762.816 1258.942)">
      <path id="Path_24065" data-name="Path 24065" d="M15.436,8.6A6.817,6.817,0,0,0,10.6,6.008V3.239a9.705,9.705,0,0,1,7.054,3.7c-.029.045-.047.084-.073.117q-3.284,3.992-6.569,7.981a1.273,1.273,0,0,1-2.138-.216,1.235,1.235,0,0,1,.342-1.558q3.02-2.275,6.049-4.535C15.321,8.688,15.372,8.647,15.436,8.6Z" transform="translate(-0.532 -3.239)" fill="#8fb641"/>
      <path id="Path_24066" data-name="Path 24066" d="M17.4,7.2c.241.507.5.966.685,1.453a9.422,9.422,0,0,1-1.236,9.243c-.288.4-.573.429-.951.11s-.762-.638-1.14-.96a.535.535,0,0,1-.1-.848,6.672,6.672,0,0,0,.868-6.451.311.311,0,0,1-.006-.24C16.13,8.746,16.746,8,17.4,7.2Z" transform="translate(0.362 -2.625)" fill="#316c3b"/>
      <path id="Path_24067" data-name="Path 24067" d="M4.058,6.011,6.009,7.959A6.69,6.69,0,0,0,4.4,11.818H1.645A9.143,9.143,0,0,1,4.058,6.011Z" transform="translate(-1.632 -2.809)" fill="#8fb641"/>
      <path id="Path_24068" data-name="Path 24068" d="M10.223,3.244V6.007a6.721,6.721,0,0,0-3.869,1.61L4.4,5.668A9.536,9.536,0,0,1,10.223,3.244Z" transform="translate(-1.205 -3.238)" fill="#8fb641"/>
      <path id="Path_24069" data-name="Path 24069" d="M4.366,11.949c.084.432.147.857.253,1.271a6.507,6.507,0,0,0,1.06,2.208.562.562,0,0,1-.112.915c-.386.325-.767.654-1.156.975a.522.522,0,0,1-.854-.106,9.475,9.475,0,0,1-1.922-5.166.64.64,0,0,1,.008-.1Z" transform="translate(-1.634 -1.887)" fill="#8fb641"/>
      <path id="Path_24070" data-name="Path 24070" d="M10.587,17.282q2.258,0,4.518,0a.494.494,0,0,1,.524.641.439.439,0,0,1-.333.35.994.994,0,0,1-.241.029q-4.474,0-8.947,0c-.384,0-.593-.18-.6-.5A.477.477,0,0,1,6,17.285c.334-.008.668,0,1,0Z" transform="translate(-1.032 -1.059)" fill="#316c3b"/>
      <path id="Path_24071" data-name="Path 24071" d="M10.229,15.508c.616,0,1.233-.006,1.848,0a.5.5,0,0,1,.464.731.476.476,0,0,1-.466.285c-1.24,0-2.478.006-3.718,0A.491.491,0,0,1,7.843,16a.486.486,0,0,1,.537-.494C9,15.5,9.613,15.508,10.229,15.508Z" transform="translate(-0.67 -1.335)" fill="#316c3b"/>
    </g>
  </g>
</svg>
