<svg xmlns="http://www.w3.org/2000/svg" xmlns:xlink="http://www.w3.org/1999/xlink" width="37" height="37" viewBox="0 0 37 37">
  <defs>
    <clipPath id="clip-path">
      <rect id="Rectangle_7027" data-name="Rectangle 7027" width="37" height="37" transform="translate(95 1828)" fill="#fff" stroke="#707070" stroke-width="1" opacity="0.73"/>
    </clipPath>
  </defs>
  <g id="Mask_Group_192" data-name="Mask Group 192" transform="translate(-95 -1828)" clip-path="url(#clip-path)">
    <g id="Group_48848" data-name="Group 48848" transform="translate(97.517 1829.166)">
      <path id="Path_24097" data-name="Path 24097" d="M50.794,42.012a10.53,10.53,0,0,0-4.308-6.666,10.378,10.378,0,0,0-10.7-1.209,11,11,0,0,0-5.01,15.906c.858,1.364,1.715,2.709,2.592,4.054l.916,1.442,1.325,2.086.136.195.448.682c.975,1.54,1.949,3.1,2.943,4.639a1.065,1.065,0,0,0,.76.585,1.008,1.008,0,0,0,1.092-.565c.916-1.423,1.832-2.865,2.748-4.308.136-.214.273-.448.429-.663l.292-.448,1.4-2.2.468-.741c1.033-1.579,2.047-3.177,3.041-4.756A10.685,10.685,0,0,0,50.794,42.012Zm-10.74,7.212a4.98,4.98,0,1,1,4.99-4.99A5,5,0,0,1,40.054,49.224Zm.019-7.953a2.982,2.982,0,1,0,2.982,2.982A2.995,2.995,0,0,0,40.074,41.271Z" transform="translate(-25.118 -33.178)" fill="#306b3b"/>
      <path id="Path_24098" data-name="Path 24098" d="M56.332,52.193a6.319,6.319,0,0,1-2.4,1.891,19.187,19.187,0,0,1-6.023,1.793c-1.345.195-2.709.292-4.054.429-.117,0-.214.039-.331.039H40.407l-1.52-.117a27.888,27.888,0,0,1-6.92-1.345,10.387,10.387,0,0,1-3.626-1.949,3.725,3.725,0,0,1-1.15-1.715,3.086,3.086,0,0,1,.936-3.2,8.588,8.588,0,0,1,3.158-1.91,24.942,24.942,0,0,1,4.776-1.248,2.023,2.023,0,0,1,.234-.058c-.019-.058-.058-.1-.078-.156l1.462,2.281c-.117-.195-.214-.292-.468-.234-.468.1-.936.136-1.4.234a15.349,15.349,0,0,0-5.049,1.637,5.938,5.938,0,0,0-1.364,1.053,1.02,1.02,0,0,0,0,1.54,3.689,3.689,0,0,0,.721.624,10.965,10.965,0,0,0,3.45,1.52,34.077,34.077,0,0,0,8.421,1.111c1.248-.078,2.515-.136,3.743-.253a22.618,22.618,0,0,0,6.335-1.4A6.5,6.5,0,0,0,54.578,51.2a1.093,1.093,0,0,0,0-1.657,5.671,5.671,0,0,0-1.735-1.209A20,20,0,0,0,46.664,46.7c-.078-.02-.214.078-.273.156l1.4-2.2c-.019.058-.058.1-.078.156.663.136,1.306.234,1.93.39a16.147,16.147,0,0,1,5.146,1.949,4.593,4.593,0,0,1,1.988,2.261A2.927,2.927,0,0,1,56.332,52.193Z" transform="translate(-27.058 -22.29)" fill="#8fb641"/>
    </g>
  </g>
</svg>
