<svg xmlns="http://www.w3.org/2000/svg" width="40.331" height="40.382" viewBox="0 0 40.331 40.382">
  <path id="Icon_zocial-call" data-name="Icon zocial-call" d="M3.352,10.87a2.971,2.971,0,0,1,.756-1.613l6.05-6.051q.707-.605,1.059.2l4.891,9.177a1.32,1.32,0,0,1-.252,1.563l-2.219,2.219a2.509,2.509,0,0,0-.706,1.563A7.7,7.7,0,0,0,14.5,21.812a33.155,33.155,0,0,0,3.076,4.035l1.563,1.612c.471.471,1.075,1.051,1.817,1.74A30.44,30.44,0,0,0,24.6,31.921a8.178,8.178,0,0,0,4.008,1.689,2.195,2.195,0,0,0,1.613-.655l2.623-2.622a1.108,1.108,0,0,1,1.511-.2l8.825,5.193a.737.737,0,0,1,.4.529.644.644,0,0,1-.2.58l-6.05,6.051a2.963,2.963,0,0,1-1.612.755,12.2,12.2,0,0,1-5.573-.681,25.214,25.214,0,0,1-5.746-2.748Q21.759,38.1,19.49,36.333t-3.63-3.025l-1.311-1.262q-.5-.5-1.336-1.387t-2.9-3.477a50.638,50.638,0,0,1-3.58-5.067,29.56,29.56,0,0,1-2.622-5.622A11.96,11.96,0,0,1,3.352,10.87Z" transform="translate(-3.267 -2.947)" fill="#306b3b"/>
</svg>
