<svg xmlns="http://www.w3.org/2000/svg" width="27.564" height="27.512" viewBox="0 0 27.564 27.512">
  <g id="Group_48945" data-name="Group 48945" transform="translate(-1600 -2443.775)">
    <path id="Path_24209" data-name="Path 24209" d="M1600,2465.806v-16.549c.019-.087.045-.172.057-.26a5.779,5.779,0,0,1,1.052-2.668,5.947,5.947,0,0,1,5.045-2.551q7.628-.01,15.257,0,.188,0,.377.009a5.975,5.975,0,0,1,5.4,3.968,14.586,14.586,0,0,1,.374,1.5v16.549c-.019.087-.042.173-.057.26a5.9,5.9,0,0,1-3.906,4.839,12.207,12.207,0,0,1-1.528.382h-16.582c-.077-.018-.154-.042-.232-.054a5.9,5.9,0,0,1-4.876-3.9A12.082,12.082,0,0,1,1600,2465.806Zm13.782,3.761c2.557,0,5.114,0,7.671,0a4.291,4.291,0,0,0,4.386-4.365q.01-7.669,0-15.339a4.285,4.285,0,0,0-4.359-4.364q-7.7-.012-15.4,0a4.282,4.282,0,0,0-4.358,4.337q-.014,7.7.007,15.393a4.56,4.56,0,0,0,.232,1.421,4.252,4.252,0,0,0,4.12,2.917C1608.65,2469.573,1611.216,2469.567,1613.782,2469.568Z" fill="#316C3B"/>
    <path id="Path_24210" data-name="Path 24210" d="M1766.583,2547.891V2546.2h10.3v1.687Z" transform="translate(-155.373 -95.536)" fill="#316c3b"/>
    <path id="Path_24211" data-name="Path 24211" d="M1776.906,2635.711v1.685h-10.312v-1.685Z" transform="translate(-155.383 -179.02)" fill="#316c3b"/>
    <path id="Path_24212" data-name="Path 24212" d="M1766.574,2726.749v-1.686h10.312v1.686Z" transform="translate(-155.364 -262.359)" fill="#316c3b"/>
    <path id="Path_24213" data-name="Path 24213" d="M1691.271,2533.2c.278,0,.556,0,.834,0a.854.854,0,0,1,.889.876q.013.846,0,1.691a.848.848,0,0,1-.869.867q-.847.014-1.695,0a.851.851,0,0,1-.876-.888q-.011-.832,0-1.664a.854.854,0,0,1,.884-.882C1690.715,2533.2,1690.993,2533.2,1691.271,2533.2Z" transform="translate(-83.521 -83.407)" fill="#316c3b"/>
    <path id="Path_24214" data-name="Path 24214" d="M1691.259,2626.031c-.287,0-.574.007-.861,0a.848.848,0,0,1-.857-.852q-.017-.859,0-1.718a.848.848,0,0,1,.874-.863q.847-.013,1.695,0a.848.848,0,0,1,.871.866q.014.846,0,1.691a.854.854,0,0,1-.888.877C1691.815,2626.036,1691.537,2626.031,1691.259,2626.031Z" transform="translate(-83.508 -166.781)" fill="#316c3b"/>
    <path id="Path_24215" data-name="Path 24215" d="M1689.575,2713.727c0-.286-.007-.573,0-.859a.848.848,0,0,1,.857-.853q.86-.016,1.721,0a.847.847,0,0,1,.862.875q.013.846,0,1.691a.847.847,0,0,1-.87.866q-.847.014-1.694,0a.854.854,0,0,1-.876-.889C1689.57,2714.281,1689.575,2714,1689.575,2713.727Z" transform="translate(-83.544 -250.181)" fill="#316c3b"/>
  </g>
</svg>
