<svg xmlns="http://www.w3.org/2000/svg" xmlns:xlink="http://www.w3.org/1999/xlink" width="23" height="23" viewBox="0 0 23 23">
  <defs>
    <clipPath id="clip-path">
      <rect id="Rectangle_7030" data-name="Rectangle 7030" width="23" height="23" transform="translate(666 1257)" fill="#fff" stroke="#707070" stroke-width="1" opacity="0.73"/>
    </clipPath>
  </defs>
  <g id="Mask_Group_198" data-name="Mask Group 198" transform="translate(-666 -1257)" clip-path="url(#clip-path)">
    <g id="Group_48825" data-name="Group 48825" transform="translate(668.578 1258.943)">
      <g id="Group_48819" data-name="Group 48819" transform="translate(0 1.724)">
        <path id="Path_24064" data-name="Path 24064" d="M5.053-24.456H3.328A2.586,2.586,0,0,0,.741-21.869h0v10.347A2.587,2.587,0,0,0,3.328-8.935H15.4a2.588,2.588,0,0,0,2.587-2.587V-21.869A2.587,2.587,0,0,0,15.4-24.456H13.675m-1.725,0H6.776m9.485,12.934a.863.863,0,0,1-.861.863H3.328a.862.862,0,0,1-.862-.862h0v-6.035h13.8ZM13.675-22.731H15.4a.862.862,0,0,1,.862.862h0v2.587H2.466v-2.587a.862.862,0,0,1,.862-.862H5.053m1.724,0H11.95" transform="translate(-0.741 24.456)" fill="#316c3b"/>
        <ellipse id="Ellipse_509" data-name="Ellipse 509" cx="0.964" cy="0.964" rx="0.964" ry="0.964" transform="translate(4.065 8.106)" fill="#8fb641"/>
        <ellipse id="Ellipse_510" data-name="Ellipse 510" cx="0.964" cy="0.964" rx="0.964" ry="0.964" transform="translate(7.924 8.106)" fill="#8fb641"/>
        <ellipse id="Ellipse_511" data-name="Ellipse 511" cx="0.964" cy="0.964" rx="0.964" ry="0.964" transform="translate(11.707 8.106)" fill="#8fb641"/>
      </g>
      <path id="Path_24064-2" data-name="Path 24064" d="M6.629-22.673v.862h0a.863.863,0,0,1-.863.861.86.86,0,0,1-.861-.862V-25.26a.861.861,0,0,1,.861-.862.864.864,0,0,1,.863.862v2.587Z" transform="translate(-0.596 26.122)" fill="#8fb641"/>
      <path id="Path_24064-3" data-name="Path 24064" d="M13.292-22.673v.862h0a.861.861,0,0,1-.862.861.862.862,0,0,1-.862-.862V-25.26a.862.862,0,0,1,.862-.862.862.862,0,0,1,.862.862v2.587Z" transform="translate(-0.365 26.122)" fill="#8fb641"/>
    </g>
  </g>
</svg>
