<svg xmlns="http://www.w3.org/2000/svg" xmlns:xlink="http://www.w3.org/1999/xlink" width="37" height="37" viewBox="0 0 37 37">
  <defs>
    <clipPath id="clip-path">
      <rect id="Rectangle_7028" data-name="Rectangle 7028" width="37" height="37" transform="translate(299 1738)" fill="#fff" stroke="#707070" stroke-width="1" opacity="0.73"/>
    </clipPath>
  </defs>
  <g id="Mask_Group_193" data-name="Mask Group 193" transform="translate(-299 -1738)" clip-path="url(#clip-path)">
    <g id="Group_48845" data-name="Group 48845" transform="translate(299.573 1739.867)">
      <path id="Path_24093" data-name="Path 24093" d="M23.584,54.153a2.263,2.263,0,0,0-2.426-1.815h-.537v-10.2c0-.2,0-.407-.019-.63a2.715,2.715,0,0,0-1.37-2.167,2.844,2.844,0,0,0-3.611.519L13.973,41.5c-.37-.13-.7-.352-.982-.315-1.241.167-2.463.389-3.685.611a.728.728,0,0,0-.426,1.3c1.463,1.519,2.926,3.019,4.389,4.519a.73.73,0,0,0,.815.259.774.774,0,0,0,.537-.667c.2-1.056.407-2.093.648-3.13.111-.537.2-1.037-.3-1.37.667-.667,1.278-1.333,1.908-1.963A1.216,1.216,0,0,1,17.9,40.43a1.378,1.378,0,0,1,1.222,1.5V52.042a1.7,1.7,0,0,1-.019.3H-10.2a3.49,3.49,0,0,0-.63.037,2.2,2.2,0,0,0-1.926,1.945,2.207,2.207,0,0,0,1.37,2.333.548.548,0,0,1,.352.426c.611,2.13,1.222,4.278,1.833,6.408A5.1,5.1,0,0,0-6.14,66.913a14.3,14.3,0,0,0,1.852.519c-.037.056-.074.167-.13.259-.241.5-.482.982-.722,1.482a.78.78,0,0,0,.056.926.753.753,0,0,0,1.259-.222c.389-.741.759-1.5,1.13-2.259a.425.425,0,0,1,.444-.278H13.084a.463.463,0,0,1,.482.315c.352.722.722,1.463,1.093,2.185a.751.751,0,1,0,1.333-.667c-.241-.519-.5-1.019-.759-1.537-.037-.093-.074-.185-.093-.222a13.991,13.991,0,0,0,1.685-.426A5.254,5.254,0,0,0,20.1,63.3c.593-2.093,1.185-4.167,1.778-6.26.037-.111.093-.278.185-.315a2.365,2.365,0,0,0,1.556-1.8v-.7A.14.14,0,0,1,23.584,54.153ZM-4.288,64.339a2.126,2.126,0,0,1-1.926-1.445c-.389-1.185-.722-2.389-1.037-3.611a.725.725,0,0,1,.5-.907.773.773,0,0,1,.945.574c.3,1.019.593,2.056.87,3.074a1,1,0,0,0,.889.852.7.7,0,0,1,.648.833A.775.775,0,0,1-4.288,64.339Z" transform="translate(12.77 -38.908)" fill="#306b3b"/>
      <path id="Path_24094" data-name="Path 24094" d="M-3.672,46.7c-.628-.028-1.015-.7-.657-1.119a19.542,19.542,0,0,1,1.722-1.737.668.668,0,0,1,.922.087.672.672,0,0,1,.074.924c-.543.593-1.124,1.15-1.706,1.706A.9.9,0,0,1-3.672,46.7Z" transform="translate(19.845 -34.826)" fill="#8fb641"/>
      <path id="Path_24095" data-name="Path 24095" d="M-1.346,45.959a3,3,0,0,1-.585-.5.593.593,0,0,1,.063-.75c.3-.343.628-.663.948-.989.2-.209.4-.426.628-.615a.738.738,0,0,1,1.045.019A.725.725,0,0,1,.741,44.17c-.483.511-.983,1.006-1.5,1.489A2.66,2.66,0,0,1-1.346,45.959Z" transform="translate(21.914 -35.509)" fill="#8fb641"/>
      <path id="Path_24096" data-name="Path 24096" d="M-.192,46.465c-.13.13-.259.278-.389.407H-2.6c.444-.482.926-.944,1.426-1.407a.661.661,0,0,1,.889.074A.692.692,0,0,1-.192,46.465Z" transform="translate(21.435 -33.443)" fill="#8fb641"/>
    </g>
  </g>
</svg>
