<svg xmlns="http://www.w3.org/2000/svg" xmlns:xlink="http://www.w3.org/1999/xlink" width="37" height="37" viewBox="0 0 37 37">
  <defs>
    <clipPath id="clip-path">
      <rect id="Rectangle_7026" data-name="Rectangle 7026" width="37" height="37" transform="translate(98 1736)" fill="#fff" stroke="#707070" stroke-width="1" opacity="0.73"/>
    </clipPath>
  </defs>
  <g id="Mask_Group_191" data-name="Mask Group 191" transform="translate(-98 -1736)" clip-path="url(#clip-path)">
    <g id="Group_48847" data-name="Group 48847" transform="translate(100.171 1743.824)">
      <path id="Path_24099" data-name="Path 24099" d="M1.811,6.325c.037-.061.078-.12.113-.181a.953.953,0,0,1,1.8.417c.006.106,0,.213,0,.319V17.128h9.658c0,.3,0,.587,0,.87a2.894,2.894,0,0,0,2.969,2.974c.756.007,1.513,0,2.271,0H34.533a1.91,1.91,0,0,1,.026.228q0,3.261,0,6.523a.963.963,0,0,1-1.3.985.973.973,0,0,1-.613-.957c0-.843,0-1.683,0-2.526v-.332H3.73V27.23c0,.181,0,.363,0,.544a.959.959,0,0,1-1.835.426c-.024-.044-.056-.085-.081-.128Z" transform="translate(-1.811 -5.622)" fill="#306b3b"/>
      <path id="Path_24100" data-name="Path 24100" d="M28.354,16.407H10.314c-.88,0-1.213-.335-1.215-1.217,0-1.161-.006-2.324,0-3.485a2.847,2.847,0,0,1,2.15-2.859,3.282,3.282,0,0,1,.883-.109q6.587-.011,13.175,0a2.894,2.894,0,0,1,3.043,3.028C28.356,13.294,28.354,14.827,28.354,16.407Z" transform="translate(4.396 -2.975)" fill="#8fb641"/>
      <path id="Path_24101" data-name="Path 24101" d="M7.84,7.7a2.876,2.876,0,1,1-2.885,2.858A2.9,2.9,0,0,1,7.84,7.7Z" transform="translate(0.867 -3.856)" fill="#8fb641"/>
    </g>
  </g>
</svg>
