<svg xmlns="http://www.w3.org/2000/svg" width="26.431" height="26.349" viewBox="0 0 26.431 26.349">
  <g id="Group_48955" data-name="Group 48955" transform="translate(-1849.78 -3989.854)">
    <path id="Path_24263" data-name="Path 24263" d="M2004.771,4066.45h5.8c.512,0,.649.131.653.634s.005,1.016,0,1.523c0,.457-.161.616-.611.616q-5.885,0-11.77,0c-.434,0-.6-.159-.6-.592-.007-.519,0-1.038,0-1.557,0-.485.145-.624.629-.624Zm-5.594,1.812h11.1v-.865h-11.1Z" transform="translate(-135.017 -69.661)" fill="#ababab"/>
    <path id="Path_24264" data-name="Path 24264" d="M2004.724,4171.329h-5.8c-.552,0-.675-.125-.677-.68,0-.5,0-.993,0-1.49.005-.442.156-.6.59-.6q5.9,0,11.8,0c.435,0,.585.157.59.6.006.507,0,1.015,0,1.523s-.135.646-.642.646Q2007.657,4171.332,2004.724,4171.329Zm-5.533-.943h11.088v-.883h-11.088Z" transform="translate(-135.024 -162.524)" fill="#ababab"/>
    <path id="Path_24265" data-name="Path 24265" d="M1968.488,4003.013q0,6.216,0,12.433a3.189,3.189,0,0,1-.005.338.427.427,0,0,1-.447.419.417.417,0,0,1-.453-.372,1.912,1.912,0,0,1-.02-.337q0-12.467,0-24.934a2.379,2.379,0,0,1,.008-.271.458.458,0,0,1,.916.019c.006.1,0,.2,0,.3Z" transform="translate(-107.119 0)" fill="#ababab"/>
    <path id="Path_24266" data-name="Path 24266" d="M1854.439,4106.847h-3.95c-.59,0-.706-.118-.707-.719,0-.327,0-.655,0-.982.007-.461.153-.606.615-.606q1.815,0,3.631,0h.41c0-.427-.025-.832.011-1.231a.749.749,0,0,1,.241-.534.68.68,0,0,1,.579.08c1.174.784,2.334,1.591,3.493,2.4.4.278.4.61-.009.891-1.16.806-2.319,1.613-3.494,2.4a.693.693,0,0,1-.58.069c-.131-.064-.216-.324-.231-.5C1854.416,4107.7,1854.439,4107.293,1854.439,4106.847Zm3.336-1.155-2.4-1.659c0,.3,0,.51,0,.723,0,.583-.13.709-.726.71h-3.561c-.119,0-.238.012-.353.018v.433h.383c1.2,0,2.4,0,3.6,0,.52,0,.659.145.662.67,0,.231,0,.461,0,.762Z" transform="translate(0 -102.663)" fill="#ababab"/>
    <path id="Path_24267" data-name="Path 24267" d="M2003.331,4117.462h4.444c.517,0,.658.143.661.668,0,.5,0,.994,0,1.49,0,.465-.153.617-.606.617h-8.99c-.445,0-.6-.147-.607-.58q-.011-.813,0-1.626c.006-.411.171-.567.587-.568Q2001.075,4117.458,2003.331,4117.462Zm4.157.949h-8.305v.879h8.305Z" transform="translate(-135.007 -116.054)" fill="#ababab"/>
    <path id="Path_24268" data-name="Path 24268" d="M2003.362,4219.769q2.221,0,4.443,0c.5,0,.638.137.641.646s.005,1.015,0,1.523c-.005.44-.159.6-.594.6q-4.511.005-9.021,0c-.435,0-.583-.161-.588-.606q-.009-.778,0-1.557c0-.464.147-.607.61-.607Q2001.107,4219.766,2003.362,4219.769Zm4.14.938H1999.2v.885h8.306Z" transform="translate(-135.018 -209.099)" fill="#ababab"/>
    <path id="Path_24269" data-name="Path 24269" d="M2003.344,4015.356h4.442c.529,0,.66.131.662.66,0,.508.006,1.015,0,1.523-.006.422-.157.584-.573.585q-4.527.007-9.054,0c-.418,0-.569-.16-.575-.581-.007-.508,0-1.015,0-1.523,0-.533.13-.663.658-.664Q2001.122,4015.354,2003.344,4015.356Zm-4.157,1.82h8.306v-.886h-8.306Z" transform="translate(-135.02 -23.192)" fill="#ababab"/>
    <path id="Path_24270" data-name="Path 24270" d="M1865.23,4180.21a1.39,1.39,0,1,1,1.377,1.38A1.389,1.389,0,0,1,1865.23,4180.21Zm1.841-.015a.454.454,0,1,0-.439.459A.442.442,0,0,0,1867.071,4180.2Z" transform="translate(-14.051 -171.854)" fill="#ababab"/>
    <path id="Path_24271" data-name="Path 24271" d="M1905.048,4040.389c-.608.478-.785.525-1.009.279-.208-.227-.142-.436.312-.96-.2-.3-.726-.572-.262-.993.4-.365.655.085.937.319.3-.221.571-.721.987-.283.4.419-.09.667-.3.953.483.576.536.764.284,1S1905.564,4040.861,1905.048,4040.389Z" transform="translate(-49.224 -44.312)" fill="#ababab"/>
    <path id="Path_24272" data-name="Path 24272" d="M1914.419,4232.362a.525.525,0,1,1-.525-.5A.518.518,0,0,1,1914.419,4232.362Z" transform="translate(-57.834 -220.094)" fill="#ababab"/>
  </g>
</svg>
