<svg xmlns="http://www.w3.org/2000/svg" width="25.417" height="25.461" viewBox="0 0 25.417 25.461">
  <g id="Group_48966" data-name="Group 48966" transform="translate(-3820.53 -5777)">
    <path id="Path_24289" data-name="Path 24289" d="M3834.035,5777q.71.1,1.42.2c.09.013.179.03.268.05a.5.5,0,0,1,.436.588.527.527,0,0,1-.623.392,17.812,17.812,0,0,0-2.389-.217,11.239,11.239,0,0,0-10.189,6.176c-2.3,4.3-1.88,8.545.891,12.554.046.067.1.128.149.188a2.125,2.125,0,0,1,2.789.773,2.084,2.084,0,0,1-3.035,2.745,2.123,2.123,0,0,1-.492-2.837,13.259,13.259,0,0,1-1.557-2.552,12.74,12.74,0,0,1,8.118-17.582c.784-.214,1.606-.289,2.41-.43.073-.013.145-.028.216-.043Zm-7.94,21.778a1.091,1.091,0,0,0-2.182-.013,1.091,1.091,0,1,0,2.182.013Z" transform="translate(0 0)" fill="#ababab"/>
    <path id="Path_24290" data-name="Path 24290" d="M4019.994,5832.914l-1.419-.2c-.082-.011-.163-.028-.244-.046a.491.491,0,0,1-.431-.586.509.509,0,0,1,.616-.391,23.85,23.85,0,0,0,2.466.212,11.736,11.736,0,0,0,9.194-18.737c-.033-.047-.07-.092-.106-.139-.009-.013-.023-.022,0,0a7.1,7.1,0,0,1-1.059.185,2.049,2.049,0,0,1-1.995-1.529,2.086,2.086,0,0,1,3.425-2.082,2.066,2.066,0,0,1,.446,2.457.376.376,0,0,0,.049.473,12.6,12.6,0,0,1,2.52,6.689,2.067,2.067,0,0,0,.041.217v1.542c-.014.063-.032.128-.042.192-.086.589-.141,1.185-.261,1.767a12.718,12.718,0,0,1-10.189,9.779c-.471.076-.946.131-1.419.2Zm9.023-20.687a1.093,1.093,0,1,0-1.083-1.092A1.093,1.093,0,0,0,4029.017,5812.228Z" transform="translate(-187.547 -30.453)" fill="#ababab"/>
    <path id="Path_24291" data-name="Path 24291" d="M3899.545,5853.164c.652-.252,1.237-.474,1.817-.709a.27.27,0,0,0,.118-.2c.015-.239,0-.48.007-.721a.494.494,0,0,1,.547-.558q1.5-.006,3,0a.49.49,0,0,1,.536.544c.005.248-.01.5.009.745a.291.291,0,0,0,.151.2q.781.341,1.575.654a.289.289,0,0,0,.243-.039c.187-.162.352-.35.532-.521a.492.492,0,0,1,.765,0q1.068,1.058,2.124,2.127a.5.5,0,0,1,0,.784c-.2.206-.417.4-.608.585.215.514.429.986.611,1.47.167.444.153.45.637.451.157,0,.315-.006.471,0a.466.466,0,0,1,.479.47q.012,1.578,0,3.157a.466.466,0,0,1-.487.462c-.264.01-.53,0-.793.01a.264.264,0,0,0-.2.122c-.235.58-.458,1.166-.707,1.81.164.155.379.348.582.554a.509.509,0,0,1,0,.82q-1.04,1.05-2.088,2.092a.5.5,0,0,1-.8-.006c-.2-.2-.4-.419-.562-.591-.639.249-1.23.475-1.816.712a.243.243,0,0,0-.111.182c-.013.248,0,.5-.007.746a.5.5,0,0,1-.546.559q-1.5,0-3,0a.49.49,0,0,1-.537-.542c0-.249.008-.5-.007-.747a.269.269,0,0,0-.12-.2c-.579-.236-1.164-.459-1.814-.712-.144.155-.329.366-.526.565a.519.519,0,0,1-.854.009q-1.029-1.027-2.052-2.059a.515.515,0,0,1,0-.837c.19-.2.383-.391.574-.584a.154.154,0,1,1-.008.016c-.24-.625-.467-1.225-.705-1.819a.226.226,0,0,0-.173-.091c-.248-.011-.5,0-.744,0a.5.5,0,0,1-.556-.551q0-1.491,0-2.982a.5.5,0,0,1,.568-.562c.24,0,.481.011.719-.008a.294.294,0,0,0,.2-.149q.342-.785.654-1.579a.288.288,0,0,0-.035-.244c-.155-.182-.335-.343-.5-.516a.505.505,0,0,1-.007-.8q1.049-1.059,2.106-2.108a.494.494,0,0,1,.782,0C3899.193,5852.775,3899.39,5853,3899.545,5853.164Zm12.012,5.843c-.018-.018-.024-.027-.03-.027-.248,0-.5,0-.744-.013a.509.509,0,0,1-.561-.453,7.219,7.219,0,0,0-.9-2.166.505.505,0,0,1,.079-.716c.181-.181.375-.348.553-.511l-1.541-1.535c-.15.164-.307.345-.475.516a.521.521,0,0,1-.771.1,7.022,7.022,0,0,0-2.118-.88.521.521,0,0,1-.471-.595c0-.246,0-.491,0-.74h-2.1c0,.269,0,.523,0,.777a.5.5,0,0,1-.434.551,7.22,7.22,0,0,0-2.186.906.5.5,0,0,1-.712-.091c-.177-.182-.338-.381-.476-.537-.54.542-1.026,1.031-1.518,1.526-.009-.013,0,0,.009.014.152.153.3.3.454.459a.539.539,0,0,1,.1.795,6.987,6.987,0,0,0-.862,2.074c-.094.395-.241.507-.642.51-.236,0-.471,0-.7,0v2.085a.264.264,0,0,0,.062.019c.231,0,.463,0,.694,0a.51.51,0,0,1,.577.46,7.2,7.2,0,0,0,.888,2.146.514.514,0,0,1-.1.751c-.176.173-.367.331-.527.474l1.539,1.541c.155-.165.319-.351.494-.526a.507.507,0,0,1,.731-.092,7.113,7.113,0,0,0,2.14.89.523.523,0,0,1,.471.6c0,.246,0,.493,0,.745h2.087a.382.382,0,0,0,.013-.066c0-.224,0-.447,0-.671a.52.52,0,0,1,.465-.6,7.14,7.14,0,0,0,2.14-.891.5.5,0,0,1,.733.083c.179.181.342.377.487.538l1.529-1.536c-.166-.158-.354-.332-.534-.515a.5.5,0,0,1-.085-.694,7.237,7.237,0,0,0,.909-2.189.5.5,0,0,1,.564-.443c.254,0,.507,0,.769,0Z" transform="translate(-70.287 -70.294)" fill="#ababab"/>
    <path id="Path_24292" data-name="Path 24292" d="M4158.583,5794.929a.487.487,0,0,1,.491.48.5.5,0,0,1-.5.508.509.509,0,0,1-.494-.512A.5.5,0,0,1,4158.583,5794.929Z" transform="translate(-320.77 -17.038)" fill="#ababab"/>
    <path id="Path_24293" data-name="Path 24293" d="M3975.716,6251.881a.48.48,0,0,1-.491.482.492.492,0,0,1-.494-.484.5.5,0,0,1,.509-.5A.492.492,0,0,1,3975.716,6251.881Z" transform="translate(-146.534 -450.787)" fill="#ababab"/>
    <path id="Path_24294" data-name="Path 24294" d="M3997.625,5950.309a4.111,4.111,0,1,1-3.994,4.216A4.117,4.117,0,0,1,3997.625,5950.309Zm.107.993a3.116,3.116,0,1,0,3.111,3.116A3.128,3.128,0,0,0,3997.732,5951.3Z" transform="translate(-164.49 -164.688)" fill="#ababab"/>
  </g>
</svg>
