<svg xmlns="http://www.w3.org/2000/svg" width="28.104" height="29.754" viewBox="0 0 28.104 29.754">
  <g id="Group_48963" data-name="Group 48963" transform="translate(-1608.977 -4353.998)">
    <path id="Path_24274" data-name="Path 24274" d="M1622.563,4354h.928a1.4,1.4,0,0,0,.189.056,4.107,4.107,0,0,1,2.906,6.094c-.055.093-.1.19-.177.328,1,0,1.935-.011,2.87,0a6.74,6.74,0,0,1,1.3.112,5.387,5.387,0,0,1,4.284,4.578q1.04,6.021,2.125,12.034a5.413,5.413,0,0,1-4.5,6.431.938.938,0,0,0-.238.116h-18.444a1.11,1.11,0,0,0-.267-.119,5.367,5.367,0,0,1-4.5-6.107c.1-.707.236-1.409.36-2.112.618-3.506,1.223-7.016,1.863-10.518a5.309,5.309,0,0,1,5.157-4.408c.965-.027,1.932-.007,2.9-.01h.339c-.074-.133-.114-.208-.157-.283a4.052,4.052,0,0,1,1.4-5.58A9.835,9.835,0,0,1,1622.563,4354Zm.469,27.948q4.233,0,8.465,0a4.717,4.717,0,0,0,.95-.087,3.646,3.646,0,0,0,2.8-4.382q-1.08-6.042-2.137-12.088a3.661,3.661,0,0,0-3.743-3.154q-2.232,0-4.464,0-4.131,0-8.262,0a3.636,3.636,0,0,0-2.724,1.138,4.268,4.268,0,0,0-1.044,2.368c-.64,3.689-1.3,7.376-1.95,11.063a5.677,5.677,0,0,0-.116,2.325,3.658,3.658,0,0,0,3.67,2.822Q1618.756,4381.951,1623.032,4381.946Zm-.042-21.475a2.358,2.358,0,0,0,2.391-2.329,2.353,2.353,0,1,0-2.391,2.329Z" transform="translate(0)" fill="#ababab"/>
    <path id="Path_24275" data-name="Path 24275" d="M1813.552,4556.164c-.153,0-.288.006-.422,0a.87.87,0,0,1-.011-1.738c.473-.017.947-.017,1.42,0a.817.817,0,0,1,.795.716,3.575,3.575,0,0,1-.39,2.3,2.792,2.792,0,0,1-4.775.02,2.806,2.806,0,0,1-.43-1.512c-.005-.6-.01-1.2,0-1.8a2.826,2.826,0,0,1,2.932-2.854,2.732,2.732,0,0,1,2.038,1.015.875.875,0,1,1-1.3,1.17,1.065,1.065,0,0,0-1.424-.267.918.918,0,0,0-.467.76c-.014.714-.025,1.43,0,2.144a1.024,1.024,0,0,0,2.032.045Z" transform="translate(-186.172 -182.964)" fill="#ababab"/>
    <path id="Path_24276" data-name="Path 24276" d="M1719.536,4554.063a1.449,1.449,0,0,1,.163-.267c.7-.732,1.41-1.459,2.113-2.19a.91.91,0,0,1,.879-.326.87.87,0,0,1,.444,1.473c-.49.534-1,1.051-1.51,1.563-.218.218-.467.406-.724.627.135.148.2.226.272.3l1.934,2a.87.87,0,0,1,.226.958.821.821,0,0,1-.74.564.914.914,0,0,1-.771-.324c-.71-.738-1.425-1.471-2.135-2.208a1.982,1.982,0,0,1-.169-.233l-.089.045q0,.541,0,1.083c0,.261.006.521,0,.782a.872.872,0,0,1-.871.863.861.861,0,0,1-.868-.865c-.011-.792,0-1.584,0-2.376,0-1.12,0-2.241,0-3.362a.87.87,0,0,1,.859-.906.879.879,0,0,1,.884.912c.006.309,0,.618,0,.927v.886Z" transform="translate(-100.807 -182.933)" fill="#ababab"/>
  </g>
</svg>
