<svg xmlns="http://www.w3.org/2000/svg" width="28.105" height="28.033" viewBox="0 0 28.105 28.033">
  <g id="Group_48965" data-name="Group 48965" transform="translate(-2291.665 -5643.653)">
    <path id="Path_24284" data-name="Path 24284" d="M2300.579,5656.667l1.624,2.087q1.2,1.543,2.4,3.086a2.266,2.266,0,0,0,2.824.738,1.381,1.381,0,0,1,1.676.388c.575.647,1.159,1.288,1.718,1.949a2.647,2.647,0,0,1,.432.729,1.251,1.251,0,0,1-.446,1.57,1.691,1.691,0,0,0-.659.931,3.992,3.992,0,0,1-3.573,2.75,1.331,1.331,0,0,0-.889.357,1.374,1.374,0,0,1-2.156-.194q-.884-1.1-1.766-2.206a1.317,1.317,0,0,1-.03-1.729,2.27,2.27,0,0,0-.042-2.921q-2.935-3.738-5.878-7.47a.37.37,0,0,0-.408-.166,16.451,16.451,0,0,1-1.626.288,13.1,13.1,0,0,1-1.65.007.466.466,0,0,1-.435-.427,1.974,1.974,0,0,1-.022-.369c0-3.407.008-6.814-.009-10.222a1.42,1.42,0,0,1,.828-1.375,6.456,6.456,0,0,1,2.3-.634,20.737,20.737,0,0,1,6.282.118,7.863,7.863,0,0,1,1.746.583,1.258,1.258,0,0,1,.739,1.271c-.016,3.426-.008,6.853-.008,10.279,0,.649-.156.794-.813.806a5.8,5.8,0,0,1-1.861-.183A2.36,2.36,0,0,0,2300.579,5656.667Zm1.825-.9a1.475,1.475,0,0,0,.038-.172c0-1.523.006-3.046-.008-4.569a.407.407,0,0,0-.229-.3,9.828,9.828,0,0,0-1.4-.381,19.56,19.56,0,0,0-5.6-.1,17.078,17.078,0,0,0-2.049.47c-.23.057-.31.218-.308.47.013,1.409.006,2.818.007,4.227,0,.092.009.185.015.31a4.291,4.291,0,0,0,.693-.035,20.582,20.582,0,0,1,7.293-.166C2301.367,5655.591,2301.878,5655.681,2302.4,5655.764Zm-5.352.767c.081.108.156.214.236.316q2.594,3.332,5.188,6.665a3.456,3.456,0,0,1,.1,4.309.343.343,0,0,0,.026.5c.555.677,1.1,1.365,1.643,2.047.256.32.3.33.6.042a1.717,1.717,0,0,1,1.186-.538,2.9,2.9,0,0,0,2.9-2.212,2.038,2.038,0,0,1,.819-1.184c.364-.253.378-.332.107-.683-.541-.7-1.1-1.386-1.666-2.064a.373.373,0,0,0-.337-.07,3.438,3.438,0,0,1-4.269-1.143q-2.255-2.891-4.515-5.778c-.062-.078-.148-.192-.226-.194C2298.262,5656.523,2297.668,5656.531,2297.052,5656.531Zm-4.2-9.478a20.4,20.4,0,0,1,9.592.045c0-.395-.01-.811,0-1.227a.333.333,0,0,0-.236-.373,9.01,9.01,0,0,0-1.139-.354,19.15,19.15,0,0,0-6.388-.1,10.1,10.1,0,0,0-1.562.421.427.427,0,0,0-.258.285C2292.836,5646.19,2292.853,5646.627,2292.853,5647.053Zm9.592,2.448c0-.278-.012-.58,0-.879a.316.316,0,0,0-.241-.363,9.6,9.6,0,0,0-1.064-.311,19.744,19.744,0,0,0-6.389-.1,11.219,11.219,0,0,0-1.62.425c-.109.032-.258.157-.267.25-.032.333-.013.672-.013.979A19.847,19.847,0,0,1,2302.444,5649.5Z" transform="translate(0 -0.002)" fill="#ababab"/>
    <path id="Path_24285" data-name="Path 24285" d="M2506.257,5656.64a5.264,5.264,0,0,1-2.2.25c-.579,0-.751-.173-.751-.75,0-3.465,0-6.93-.005-10.4a1.267,1.267,0,0,1,.617-1.145,5.2,5.2,0,0,1,2.151-.708,21.274,21.274,0,0,1,6.371,0,9.166,9.166,0,0,1,1.8.5,1.467,1.467,0,0,1,1.007,1.545c-.027,3.379-.011,6.759-.012,10.138,0,.642-.171.77-.816.817a10.1,10.1,0,0,1-2.537-.307.81.81,0,0,0-.907.352c-1.412,1.843-2.857,3.661-4.291,5.488a.6.6,0,0,1-.909.155.585.585,0,0,1-.017-.864q1.932-2.476,3.869-4.948c.08-.1.156-.207.231-.307-.611,0-1.205-.009-1.8.01-.085,0-.179.127-.246.212-1.125,1.428-2.244,2.86-3.372,4.285a.978.978,0,0,1-.409.325.538.538,0,0,1-.647-.242.582.582,0,0,1,.071-.715q.745-.957,1.494-1.913.666-.852,1.331-1.706Zm7.924-.865v-.357c0-1.418-.006-2.835.006-4.253a.381.381,0,0,0-.281-.429,12.7,12.7,0,0,0-1.424-.393,18.925,18.925,0,0,0-5.544-.1,16.939,16.939,0,0,0-2.072.487c-.207.052-.283.2-.281.43.01,1.417.005,2.835.005,4.253v.274a3.588,3.588,0,0,0,.717-.006,20.209,20.209,0,0,1,7.233-.163C2513.07,5655.6,2513.6,5655.684,2514.181,5655.774Zm-.117-8.738v-.575c0-1.031,0-1.048-1.025-1.264a18.847,18.847,0,0,0-6.723-.137,10.98,10.98,0,0,0-1.587.438c-.1.031-.239.151-.244.237-.025.442-.011.886-.011,1.312A19.891,19.891,0,0,1,2514.064,5647.037Zm.058,2.456c0-.251-.017-.528.005-.8a.351.351,0,0,0-.27-.408,12.7,12.7,0,0,0-1.452-.4,18.933,18.933,0,0,0-5.518-.1,15.707,15.707,0,0,0-2.022.462c-.123.031-.3.153-.314.25a8.835,8.835,0,0,0-.015,1A19.939,19.939,0,0,1,2514.123,5649.493Z" transform="translate(-195.486)" fill="#ababab"/>
    <path id="Path_24286" data-name="Path 24286" d="M2350.529,5741.369a1.751,1.751,0,0,1-3.5.053,1.8,1.8,0,0,1,1.747-1.815A1.756,1.756,0,0,1,2350.529,5741.369Zm-1.758-.641a.554.554,0,0,0-.579.539.587.587,0,1,0,1.173.026A.581.581,0,0,0,2348.771,5740.728Z" transform="translate(-51.138 -88.631)" fill="#ababab"/>
    <path id="Path_24287" data-name="Path 24287" d="M2455.17,5919.925a2.3,2.3,0,1,1-2.262-2.324A2.33,2.33,0,0,1,2455.17,5919.925Zm-2.23,1.127a1.125,1.125,0,1,0-.088-2.249,1.125,1.125,0,1,0,.088,2.249Z" transform="translate(-146.773 -253.044)" fill="#ababab"/>
    <path id="Path_24288" data-name="Path 24288" d="M2562.16,5740.559a1.732,1.732,0,0,1-1.75,1.792,1.758,1.758,0,0,1-.005-3.516A1.731,1.731,0,0,1,2562.16,5740.559Zm-1.75.67a.558.558,0,0,0,.585-.533.59.59,0,0,0-.6-.622.579.579,0,0,0-.574.583A.586.586,0,0,0,2560.41,5741.229Z" transform="translate(-246.619 -87.918)" fill="#ababab"/>
  </g>
</svg>
