<svg xmlns="http://www.w3.org/2000/svg" width="26.649" height="29.499" viewBox="0 0 26.649 29.499">
  <g id="Group_48950" data-name="Group 48950" transform="translate(-1667.933 -3222.685)">
    <path id="Path_24244" data-name="Path 24244" d="M1667.933,3239.832q0-7.846,0-15.69c0-1.006.445-1.45,1.453-1.45q10,0,20.006-.006a1.638,1.638,0,0,1,1.254.525q1.715,1.752,3.462,3.472a1.5,1.5,0,0,1,.474,1.137c-.006,9.262,0,13.732-.005,22.994a1.228,1.228,0,0,1-1.36,1.371h-23.938a1.221,1.221,0,0,1-1.345-1.351C1667.933,3245.568,1667.933,3245.1,1667.933,3239.832Zm21.4-16.035h-.261q-9.847,0-19.695-.008c-.359,0-.344.177-.344.425,0,10.414,0,16.035,0,26.449,0,.331.089.422.421.422q11.8-.014,23.592,0c.354,0,.439-.092.438-.441-.01-9.032-.008-13.271-.008-22.3v-.4h-.409c-.931,0-1.863.005-2.794,0a.89.89,0,0,1-.933-.9c-.008-.138,0-.276,0-.415C1689.334,3225.7,1689.334,3224.766,1689.334,3223.8Zm3.153,3.024-2.026-2.037v2.037Z" fill="#ababab"/>
    <path id="Path_24245" data-name="Path 24245" d="M1744.863,3256.472c-.3-.128-.563-.263-.843-.354a.812.812,0,0,0-.438.008c-.175.047-.33.178-.506.211a1.045,1.045,0,0,0-.846.861c-.143.486-.278.551-.781.553s-1.011-.007-1.517,0a.586.586,0,0,1-.663-.475,1.38,1.38,0,0,0-.978-1.007,1.318,1.318,0,0,0-1.274.018c-.429.232-.577.182-.914-.153-.359-.357-.71-.722-1.075-1.073a.6.6,0,0,1-.15-.806,1.15,1.15,0,0,0,.006-1.392.159.159,0,0,1-.022-.065,1.012,1.012,0,0,0-.827-.831c-.521-.156-.581-.285-.582-.833,0-.484.007-.967,0-1.451a.616.616,0,0,1,.483-.7,1.112,1.112,0,0,0,.962-.96.153.153,0,0,1,.03-.062,1.03,1.03,0,0,0,0-1.205c-.248-.465-.2-.6.172-.971.349-.35.7-.695,1.047-1.052a.579.579,0,0,1,.774-.151,1.45,1.45,0,0,0,1.469.025,1.313,1.313,0,0,0,.855-.905c.14-.467.294-.544.79-.546s.965.008,1.448,0a.634.634,0,0,1,.724.5,1.112,1.112,0,0,0,.963.959.222.222,0,0,1,.093.044.978.978,0,0,0,1.142-.007c.485-.251.619-.209,1,.172.35.35.694.705,1.05,1.049a.59.59,0,0,1,.14.779,1.418,1.418,0,0,0-.03,1.435,1.372,1.372,0,0,0,.919.886c.461.136.528.281.531.764,0,.507,0,1.013,0,1.52a.6.6,0,0,1-.471.67,1.147,1.147,0,0,0-.984.985.229.229,0,0,1-.041.094.928.928,0,0,0-.012,1.078c.29.563.25.656-.2,1.112-.333.334-.66.675-1,1A2.759,2.759,0,0,1,1744.863,3256.472Zm.606-9.99a3.722,3.722,0,0,1-.364-.4.548.548,0,0,0-.861-.167.861.861,0,0,1-1-.024,3.225,3.225,0,0,0-.945-.4,1.068,1.068,0,0,1-.9-.866c-.028-.118-.1-.313-.164-.322a3.691,3.691,0,0,0-.958-.011c-.093.013-.187.243-.225.388a1,1,0,0,1-.843.794,2.219,2.219,0,0,0-.825.332,1.142,1.142,0,0,1-1.375.027c-.083-.05-.235-.113-.277-.077a3.549,3.549,0,0,0-.674.682c-.062.093.061.344.147.5a.937.937,0,0,1-.042,1.033,3.565,3.565,0,0,0-.408.982,1,1,0,0,1-.773.823c-.141.038-.373.1-.386.186a3.275,3.275,0,0,0-.014.958c.013.094.24.191.384.228a1,1,0,0,1,.793.846,2.477,2.477,0,0,0,.348.857,1.076,1.076,0,0,1,.033,1.282c-.062.1-.142.288-.1.342a3.422,3.422,0,0,0,.679.676c.085.059.325-.053.465-.136a.96.96,0,0,1,1.092.046,3.094,3.094,0,0,0,.916.384,1.027,1.027,0,0,1,.862.819c.031.128.1.337.179.347a3.264,3.264,0,0,0,.957.01c.1-.016.195-.261.237-.416a.967.967,0,0,1,.8-.745,2.186,2.186,0,0,0,.8-.313,1.2,1.2,0,0,1,1.466-.038c.071.044.211.09.25.056a3.7,3.7,0,0,0,.67-.685c.061-.093-.068-.343-.154-.5a.912.912,0,0,1,.031-1,3.463,3.463,0,0,0,.412-.98,1.03,1.03,0,0,1,.824-.858c.128-.032.335-.105.346-.182a3.265,3.265,0,0,0,.01-.958c-.016-.1-.262-.2-.417-.237a.992.992,0,0,1-.749-.8,4.658,4.658,0,0,0-.453-1.075.835.835,0,0,1-.032-.877C1745.312,3246.858,1745.373,3246.7,1745.469,3246.481Z" transform="translate(-59.479 -18.585)" fill="#ababab"/>
    <path id="Path_24246" data-name="Path 24246" d="M1763.79,3476.665h-5.171a1.942,1.942,0,0,1-.344-.011.546.546,0,0,1-.07-1.062,1.151,1.151,0,0,1,.34-.031q5.24,0,10.48,0a1.1,1.1,0,0,1,.307.024.546.546,0,0,1-.062,1.071,2.182,2.182,0,0,1-.344.009Z" transform="translate(-81.597 -229.567)" fill="#ababab"/>
    <path id="Path_24247" data-name="Path 24247" d="M1763.752,3425.738h-5.1a2.792,2.792,0,0,1-.344-.008.506.506,0,0,1-.484-.5.5.5,0,0,1,.4-.567,1.561,1.561,0,0,1,.409-.034q5.153,0,10.306,0c.057,0,.115,0,.172,0,.4.013.651.233.647.563s-.248.54-.66.541Q1766.423,3425.741,1763.752,3425.738Z" transform="translate(-81.602 -183.334)" fill="#ababab"/>
    <path id="Path_24248" data-name="Path 24248" d="M1710.409,3475.984c-.379,0-.758.005-1.137,0a.57.57,0,0,1-.643-.638q-.015-1.174,0-2.348a.548.548,0,0,1,.627-.611q1.172-.009,2.343,0a.546.546,0,0,1,.621.614q.016,1.173,0,2.347a.564.564,0,0,1-.641.636C1711.19,3475.989,1710.8,3475.984,1710.409,3475.984Zm.685-1.124v-1.341h-1.344v1.341Z" transform="translate(-36.938 -226.683)" fill="#ababab"/>
    <path id="Path_24249" data-name="Path 24249" d="M1710.42,3425.052c-.379,0-.758,0-1.137,0-.438-.005-.648-.193-.655-.622q-.018-1.174,0-2.348c.006-.431.214-.625.649-.627q1.154-.007,2.309,0c.418,0,.626.192.633.6q.018,1.191,0,2.382a.551.551,0,0,1-.627.61C1711.2,3425.056,1710.81,3425.052,1710.42,3425.052Zm-.675-1.132h1.355v-1.34h-1.355Z" transform="translate(-36.936 -180.446)" fill="#ababab"/>
    <path id="Path_24250" data-name="Path 24250" d="M1761.566,3496.238h2.96a2.088,2.088,0,0,1,.377.018.541.541,0,0,1,.06,1.047,1.355,1.355,0,0,1-.374.039q-3.012,0-6.024,0a1.775,1.775,0,0,1-.275-.011.54.54,0,0,1-.491-.564.522.522,0,0,1,.531-.521c.458-.016.918-.008,1.376-.009Z" transform="translate(-81.584 -248.339)" fill="#ababab"/>
    <path id="Path_24251" data-name="Path 24251" d="M1761.6,3445.358c1.021,0,2.043,0,3.064,0,.443,0,.683.2.682.547s-.244.556-.681.556q-3.1,0-6.2,0c-.429,0-.675-.22-.666-.572.009-.337.243-.53.665-.531C1759.507,3445.356,1760.551,3445.358,1761.6,3445.358Z" transform="translate(-81.582 -202.15)" fill="#ababab"/>
    <path id="Path_24252" data-name="Path 24252" d="M1775.795,3281.943a3.732,3.732,0,1,1-3.734,3.72A3.726,3.726,0,0,1,1775.795,3281.943Zm0,1.106a2.627,2.627,0,1,0,2.615,2.646A2.62,2.62,0,0,0,1775.792,3283.049Z" transform="translate(-94.531 -53.797)" fill="#ababab"/>
  </g>
</svg>
