<svg xmlns="http://www.w3.org/2000/svg" width="33.293" height="25.609" viewBox="0 0 33.293 25.609">
  <g id="Group_48962" data-name="Group 48962" transform="translate(-2988.404 -5653.51)">
    <path id="Path_24280" data-name="Path 24280" d="M2988.4,5770.155a3.491,3.491,0,0,1,.152-.456,1.152,1.152,0,0,1,.808-.651.615.615,0,0,1,.147-.013c.51.006,1.02.009,1.53.023a1.266,1.266,0,0,1,1.186,1.07,2.239,2.239,0,0,1,.02.294q0,1.108,0,2.218v.129h1.278v-.126q0-1.252,0-2.5a1.907,1.907,0,0,1,.018-.274.7.7,0,0,1,.3-.478c.149-.105.3-.209.451-.311a.919.919,0,0,1,.529-.149c.683,0,1.366,0,2.049,0a.214.214,0,0,0,.165-.068c1.11-1.1,2.217-2.205,3.337-3.294a3.393,3.393,0,0,1,.655-.436.527.527,0,0,1,.256-.042q7.04,0,14.079,0a1.575,1.575,0,0,1,.345.038,1.279,1.279,0,0,1,.978,1.18c0,.049,0,.1,0,.148v6.311h1.283v-.125c0-.8.012-1.592,0-2.387a1.3,1.3,0,0,1,1.325-1.328c.37.006.74.011,1.109,0a1.11,1.11,0,0,1,.826.333,1.414,1.414,0,0,1,.467,1.078q-.008,4.395,0,8.787a1.28,1.28,0,0,1-1.061,1.307.439.439,0,0,1-.083.011c-.514,0-1.028.023-1.541,0a1.255,1.255,0,0,1-1.155-1.247c0-.778,0-1.556,0-2.334v-.121h-1.283v.12c0,.334-.013.669,0,1a1.1,1.1,0,0,1-.331.836c-.038.042-.078.082-.117.122l-5.033,5.034a1.272,1.272,0,0,1-.7.421,1.745,1.745,0,0,1-.262.018q-4.431,0-8.861,0a1.065,1.065,0,0,1-.741-.327q-1.564-1.442-3.126-2.887c-.16-.148-.319-.3-.484-.441a.282.282,0,0,0-.165-.065c-.669-.005-1.338,0-2.007-.007a1.267,1.267,0,0,1-1.2-1.11,2.7,2.7,0,0,1-.014-.274q0-1.156,0-2.313v-.131h-1.278v.124q0,1.194,0,2.387a1.278,1.278,0,0,1-1.106,1.309,1.236,1.236,0,0,1-.2.012c-.45,0-.9,0-1.352,0a1.276,1.276,0,0,1-1.163-1.049.616.616,0,0,0-.021-.069Z" transform="translate(0 -105.176)" fill="#bfbfbf"/>
    <path id="Path_24281" data-name="Path 24281" d="M3218.014,5658.629v-1.276h-2.391a1.257,1.257,0,0,1-1.289-1.285q0-.634,0-1.268a1.25,1.25,0,0,1,1.08-1.28.675.675,0,0,1,.126-.009h8.852a1.248,1.248,0,0,1,1.295,1.2c.021.5.02,1.008-.007,1.51a1.236,1.236,0,0,1-1.224,1.128c-.82,0-1.641,0-2.461,0h-.137v1.276Z" transform="translate(-212.964 0)" fill="#bfbfbf"/>
  </g>
</svg>
