<svg xmlns="http://www.w3.org/2000/svg" xmlns:xlink="http://www.w3.org/1999/xlink" width="33.293" height="33.293" viewBox="0 0 33.293 33.293">
  <defs>
    <clipPath id="clip-path">
      <rect id="Rectangle_7070" data-name="Rectangle 7070" width="33.293" height="33.293" fill="#ababab"/>
    </clipPath>
  </defs>
  <g id="Group_48957" data-name="Group 48957" transform="translate(0 0)">
    <g id="Group_48905" data-name="Group 48905" transform="translate(0 0)" clip-path="url(#clip-path)">
      <g id="Group_48904" data-name="Group 48904" transform="translate(4.649 4.706)">
        <path id="Path_24179" data-name="Path 24179" d="M836.159,1128.388a3.249,3.249,0,0,1-1.093,1.474l-2.982-2.987a8.577,8.577,0,0,1,1.086-.882,1.353,1.353,0,0,1,1.6.141,8.465,8.465,0,0,1,1.072,1.074,2.763,2.763,0,0,1,.316.666Z" transform="translate(-812.165 -1125.794)" fill="#ababab"/>
        <path id="Path_24180" data-name="Path 24180" d="M583.468,1164.193q-4.358,0-8.715,0a3.1,3.1,0,0,1-3.081-2.137,3.438,3.438,0,0,1-.17-1.055q-.016-8.141-.006-16.282a3.13,3.13,0,0,1,3.211-3.195c1.8-.018,3.608-.005,5.412,0,.462,0,.756.277.729.666a.613.613,0,0,1-.593.583c-.288.011-.578,0-.867,0q-2.308,0-4.615,0a1.936,1.936,0,0,0-1.633.758,1.819,1.819,0,0,0-.371.946c-.011.116-.013.234-.013.351q0,8.036,0,16.071a1.857,1.857,0,0,0,1.082,1.839,2.25,2.25,0,0,0,.927.19q8.7.016,17.407.006a1.894,1.894,0,0,0,2-2.019c0-1.8,0-3.592,0-5.388a.617.617,0,0,1,.589-.68.609.609,0,0,1,.651.515,1.285,1.285,0,0,1,.017.233c0,1.788,0,3.577,0,5.365a3.117,3.117,0,0,1-2.144,3.059,3.937,3.937,0,0,1-1.173.165C589.231,1164.2,586.349,1164.193,583.468,1164.193Z" transform="translate(-571.493 -1140.312)" fill="#ababab"/>
        <path id="Path_24181" data-name="Path 24181" d="M700.931,1162.314l9.116-9.116,2.915,2.915-9.116,9.116Z" transform="translate(-691.037 -1151.104)" fill="#ababab"/>
        <path id="Path_24182" data-name="Path 24182" d="M681.473,1288.581l2.339,2.337-3.233.9Z" transform="translate(-672.241 -1276.138)" fill="#ababab"/>
      </g>
    </g>
  </g>
</svg>
