<svg xmlns="http://www.w3.org/2000/svg" width="26.648" height="29.616" viewBox="0 0 26.648 29.616">
  <g id="Group_48961" data-name="Group 48961" transform="translate(-1905.145 -5138.742)">
    <path id="Path_24279" data-name="Path 24279" d="M1911.068,5164.923c0,.624,0,1.23,0,1.835a1.49,1.49,0,0,1-1.6,1.593q-1.371,0-2.744,0a1.484,1.484,0,0,1-1.572-1.563q0-3.376,0-6.752a1.475,1.475,0,0,1,1.549-1.551q1.419-.008,2.837,0a1.478,1.478,0,0,1,1.532,1.538c0,.626,0,1.25,0,1.9h2.467v-1.573c0-.637.009-1.274-.007-1.912a.7.7,0,0,0-.151-.407,6.749,6.749,0,0,1,.01-8.962.522.522,0,0,0,.141-.289c.01-1.19.006-2.382.006-3.593h-2.467c0,.6,0,1.189,0,1.783a1.5,1.5,0,0,1-1.64,1.65c-.9,0-1.809,0-2.713,0a1.482,1.482,0,0,1-1.567-1.566q0-3.376,0-6.753a1.476,1.476,0,0,1,1.554-1.546q1.4-.006,2.806,0a1.482,1.482,0,0,1,1.559,1.573c0,.6,0,1.193.005,1.79a.333.333,0,0,0,.026.077c.092,0,.191.013.291.013,1.614,0,3.227,0,4.841,0a.537.537,0,0,0,.448-.193,2.43,2.43,0,0,1,3.609.012.487.487,0,0,0,.294.17c1.747.01,3.494.007,5.27.007.007-.1.018-.184.018-.272,0-.564-.005-1.131,0-1.7a1.469,1.469,0,0,1,1.461-1.483q1.5-.018,2.991,0a1.457,1.457,0,0,1,1.462,1.449q.016,3.484,0,6.969a1.453,1.453,0,0,1-1.437,1.442c-1.007.015-2.015.013-3.022,0a1.465,1.465,0,0,1-1.454-1.458c-.011-.647,0-1.294,0-1.967h-2.447c-.006.07-.02.148-.02.226,0,1.09-.006,2.179.005,3.269a.644.644,0,0,0,.142.379,6.745,6.745,0,0,1-.011,8.987.514.514,0,0,0-.131.292c-.007,1.172,0,2.343,0,3.515a.234.234,0,0,0,.029.068h2.414c.006-.085.017-.174.017-.261,0-.577-.008-1.151,0-1.727a1.464,1.464,0,0,1,1.434-1.445q1.526-.023,3.052,0a1.445,1.445,0,0,1,1.424,1.422q.02,3.5,0,7a1.453,1.453,0,0,1-1.442,1.438q-1.511.021-3.022,0a1.466,1.466,0,0,1-1.449-1.463c-.011-.646,0-1.294,0-1.987h-.307c-1.624,0-3.248,0-4.872.009a.624.624,0,0,0-.411.181,2.46,2.46,0,0,1-3.62,0,.52.52,0,0,0-.32-.179c-1.716-.013-3.433-.008-5.149-.007A.812.812,0,0,0,1911.068,5164.923Zm6.908-9.893v.369c0,1,0,1.994,0,2.991a.509.509,0,0,0,.374.565.49.49,0,0,0,.6-.318q1.446-2.892,2.889-5.786c.219-.441,0-.778-.5-.781-.688-.006-1.377,0-2.066,0h-.3c0-1.137,0-2.227,0-3.315,0-.3-.079-.54-.391-.614s-.473.107-.6.363q-1.414,2.837-2.834,5.673c-.265.53-.058.853.542.854Zm.5,6.91a1.479,1.479,0,1,0,1.472,1.5A1.485,1.485,0,0,0,1918.475,5161.94Zm0-16.78a1.479,1.479,0,1,0-1.483-1.49A1.483,1.483,0,0,0,1918.473,5145.16Zm-2.458,2.068a6.788,6.788,0,0,1,4.921,0v-2.039a.688.688,0,0,0-.732.216,2.393,2.393,0,0,1-3.484-.016.714.714,0,0,0-.7-.211Zm0,14.69a.713.713,0,0,0,.725-.229,2.389,2.389,0,0,1,3.483.025.668.668,0,0,0,.7.2v-2.042a6.772,6.772,0,0,1-4.9,0Zm-9.367-21.183v5.882h.949v-5.882Zm2.919,5.891v-5.882h-.952v5.882Zm18.748,0v-5.882h-.95v5.882Zm1.973,0v-5.882h-.949v5.882Zm-22.7,19.735v-5.881h-.951v5.881Zm1.971,0v-5.894h-.946v5.894Zm17.807-5.895v5.881h.95v-5.881Zm2.918,5.892v-5.881h-.949v5.881Z" transform="translate(0 0)" fill="#ababab"/>
  </g>
</svg>
