<svg xmlns="http://www.w3.org/2000/svg" width="24.286" height="25.851" viewBox="0 0 24.286 25.851">
  <g id="Group_48954" data-name="Group 48954" transform="translate(-1288.766 -3633.147)">
    <path id="Path_24261" data-name="Path 24261" d="M1303.742,3633.147a6.947,6.947,0,0,1,1.2.425,3.09,3.09,0,0,1,1.627,2.83c.012,1.531.008,3.063,0,4.594,0,.217.047.314.271.383a4.291,4.291,0,0,1,2.978,4.019c-.028,2.078-.008,4.156-.005,6.235a.81.81,0,1,0,1.613.147c.007-.075,0-.151,0-.227q0-4.708,0-9.415a.377.377,0,0,0-.229-.386,2.476,2.476,0,0,1-1.358-2.025,3.1,3.1,0,0,1,.025-.422c-.394-.2-.811-.4-1.217-.617a.757.757,0,0,1-.413-.823.705.705,0,0,1,.56-.642,1.013,1.013,0,0,1,.607.057c1.062.509,2.112,1.044,3.165,1.573a.855.855,0,0,1,.476.849q-.005,2.473,0,4.947,0,3.471,0,6.942a2.422,2.422,0,0,1-4.814.48,5.655,5.655,0,0,1-.04-.654c0-2.019,0-4.039,0-6.058a2.563,2.563,0,0,0-1.6-2.355c-.005.076-.015.145-.015.215q0,5.5,0,11.006a.3.3,0,0,0,.2.326c.314.142.62.3.928.458a.846.846,0,0,1,.5.813c0,.774,0,1.548,0,2.322a.793.793,0,0,1-.874.854h-17.6a.859.859,0,0,1-.947-.934c0-.732.005-1.464,0-2.2a.892.892,0,0,1,.546-.885c.281-.135.551-.294.838-.41a.358.358,0,0,0,.24-.4q-.008-5.213,0-10.425,0-3.572,0-7.144a3.237,3.237,0,0,1,2.82-3.417.228.228,0,0,0,.064-.037Zm2.833,24.23c0-.349.009-.676-.007-1a.3.3,0,0,0-.148-.194,7.5,7.5,0,0,0-.79-.4,1.03,1.03,0,0,1-.681-1.083q.016-9.088.006-18.175a1.6,1.6,0,0,0-1.772-1.766h-9.333a1.668,1.668,0,0,0-1.846,1.844q0,9.087,0,18.175a.944.944,0,0,1-.591.959c-.3.135-.59.288-.88.44-.059.031-.141.1-.143.147-.013.349-.007.7-.007,1.049Z" fill="#ababab"/>
    <path id="Path_24262" data-name="Path 24262" d="M1370.478,3697.019h3.869a.835.835,0,0,1,.961.955q0,3.092,0,6.183a.831.831,0,0,1-.951.94h-7.814a.831.831,0,0,1-.948-.942q0-3.1,0-6.208a.827.827,0,0,1,.938-.927Q1368.506,3697.017,1370.478,3697.019Zm-3.246,1.627v4.816h6.443v-4.816Z" transform="translate(-71.97 -59.833)" fill="#ababab"/>
  </g>
</svg>
