<svg xmlns="http://www.w3.org/2000/svg" width="27.564" height="27.549" viewBox="0 0 27.564 27.549">
  <g id="Group_48948" data-name="Group 48948" transform="translate(-1576.998 -2604.284)">
    <path id="Path_24235" data-name="Path 24235" d="M1577,2618.87v-1.615c.017-.095.036-.189.049-.285.066-.5.1-1,.2-1.491A13.78,13.78,0,0,1,1588.4,2604.5c.519-.089,1.045-.143,1.567-.212h1.615c.078.016.156.034.235.047.751.116,1.516.179,2.253.356a13.789,13.789,0,0,1,10.243,15.951,13.8,13.8,0,0,1-15.436,11.066,13.158,13.158,0,0,1-7.176-3.279,13.487,13.487,0,0,1-4.494-7.991C1577.119,2619.916,1577.068,2619.391,1577,2618.87Zm13.771,11.378a12.186,12.186,0,1,0-12.178-12.194A12.2,12.2,0,0,0,1590.769,2630.248Z" fill="#ababab"/>
    <path id="Path_24236" data-name="Path 24236" d="M1645.193,2671.388a8.728,8.728,0,0,0,2.009-4.807c-.1-.005-.193-.014-.285-.014-.834,0-1.668,0-2.5,0a.8.8,0,0,1-.86-.655.793.793,0,0,1,.84-.941c.834-.009,1.668,0,2.5,0h.3a8.749,8.749,0,0,0-2.012-4.818c-.241.259-.461.5-.691.739-.427.435-.857.868-1.295,1.293a.792.792,0,1,1-1.116-1.121c.655-.664,1.32-1.318,2.006-2a8.7,8.7,0,0,0-4.794-1.994v.308c0,.843.008,1.687,0,2.53a.8.8,0,0,1-1.592.054c-.007-.08,0-.161,0-.242q0-1.17,0-2.341v-.308a8.745,8.745,0,0,0-4.812,2.006c.122.107.232.2.331.294q.83.825,1.656,1.656a.8.8,0,1,1-1.118,1.125c-.651-.643-1.3-1.291-1.97-1.964a8.7,8.7,0,0,0-1.99,4.785h.306c.843,0,1.687-.007,2.53,0a.8.8,0,0,1,.062,1.592c-.08.008-.161,0-.242,0H1629.8a8.669,8.669,0,0,0,1.977,4.783c.074-.067.139-.121.2-.181.61-.608,1.215-1.221,1.83-1.824a.778.778,0,0,1,.915-.171.748.748,0,0,1,.436.791.982.982,0,0,1-.237.494q-1.277,1.31-2.583,2.592a.783.783,0,0,1-1.189-.03,10.326,10.326,0,1,1,17.577-8.673,10.186,10.186,0,0,1-2.2,7.928,10.051,10.051,0,0,1-.7.779.775.775,0,0,1-1.113.031q-1.335-1.31-2.645-2.645a.788.788,0,0,1,1.114-1.114c.612.593,1.209,1.2,1.811,1.8C1645.056,2671.2,1645.111,2671.285,1645.193,2671.388Z" transform="translate(-47.724 -47.703)" fill="#ababab"/>
    <path id="Path_24237" data-name="Path 24237" d="M1752.872,2758.685a2.032,2.032,0,0,1-2.106-2.214c.151-1.025.393-2.036.6-3.052.208-1,.424-2,.641-2.992a.785.785,0,0,1,1.244-.581,1.071,1.071,0,0,1,.351.573c.422,1.9.826,3.794,1.225,5.694A2.073,2.073,0,0,1,1752.872,2758.685Zm-.022-4.247-.072,0c-.149.7-.308,1.4-.441,2.1a.478.478,0,0,0,.466.566.472.472,0,0,0,.487-.546C1753.16,2755.848,1753,2755.144,1752.85,2754.438Z" transform="translate(-162.037 -135.598)" fill="#ababab"/>
    <path id="Path_24238" data-name="Path 24238" d="M1750.888,2893.649a2.377,2.377,0,1,1-2.367-2.393A2.394,2.394,0,0,1,1750.888,2893.649Zm-2.376.777a.789.789,0,1,0-.8-.781A.8.8,0,0,0,1748.512,2894.426Z" transform="translate(-157.734 -267.626)" fill="#ababab"/>
  </g>
</svg>
