<svg xmlns="http://www.w3.org/2000/svg" width="25.068" height="25.068" viewBox="0 0 25.068 25.068">
  <g id="Group_48971" data-name="Group 48971" transform="translate(-4356.304 -4837.935)">
    <path id="Path_24295" data-name="Path 24295" d="M4356.3,4848.315a.9.9,0,0,1,.987-.543c.275.022.554,0,.856,0,.044-.154.087-.307.133-.459a10.369,10.369,0,0,1,.994-2.305c.085-.145.089-.234-.043-.352-.219-.194-.421-.408-.625-.62a.717.717,0,0,1-.008-1.051q1.367-1.384,2.752-2.751a.714.714,0,0,1,1.068.006c.257.249.5.512.7.712l3.032-1.257c0-.256,0-.6,0-.937a.749.749,0,0,1,.835-.828h3.72a.749.749,0,0,1,.831.833c0,.334,0,.667,0,.933l3.034,1.256c.186-.191.42-.44.664-.681a.733.733,0,0,1,1.139,0q1.338,1.327,2.666,2.665a.734.734,0,0,1,0,1.141c-.24.244-.488.479-.682.668l1.253,3.029c.274,0,.616,0,.957,0a.742.742,0,0,1,.809.8q0,1.885,0,3.769a.743.743,0,0,1-.8.812c-.327,0-.653,0-.979,0-.016,0-.032.007.016,0l-1.254,3.031c.183.179.425.409.66.646a.742.742,0,0,1,.008,1.175q-1.318,1.328-2.647,2.647a.742.742,0,0,1-1.159-.009c-.2-.2-.4-.409-.609-.6a.252.252,0,0,0-.218-.055,11.528,11.528,0,0,1-2.855,1.163c0,.291-.018.577,0,.859a.9.9,0,0,1-.543.986h-4.309a.9.9,0,0,1-.542-.985c.021-.283,0-.569,0-.78l-3.028-1.256c.059-.027.05-.025.044-.02-.243.24-.485.483-.73.721a.731.731,0,0,1-1.105,0q-1.354-1.345-2.7-2.7a.727.727,0,0,1,0-1.1c.245-.25.5-.49.7-.685l-1.255-3.031c-.211,0-.5-.019-.78,0a.9.9,0,0,1-.986-.543Zm21.206,9.074c-.187-.181-.388-.37-.583-.565a.742.742,0,0,1-.122-1.09,9.644,9.644,0,0,0,1.39-3.369.75.75,0,0,1,.823-.671c.29,0,.581,0,.866,0v-2.437a.571.571,0,0,0-.067-.01c-.269,0-.539,0-.808,0a.747.747,0,0,1-.811-.657,9.639,9.639,0,0,0-1.411-3.411.725.725,0,0,1,.112-1.034c.207-.206.427-.4.661-.615-.326-.321-.612-.6-.894-.88s-.569-.575-.872-.882c-.2.2-.364.377-.536.55-.453.454-.7.481-1.245.131a9.441,9.441,0,0,0-3.237-1.328.769.769,0,0,1-.714-.885c0-.274,0-.547,0-.817h-2.422a.194.194,0,0,0-.021.056c0,.277,0,.554-.005.832a.737.737,0,0,1-.639.8,9.69,9.69,0,0,0-3.433,1.42.729.729,0,0,1-1.034-.121c-.207-.205-.407-.417-.571-.587l-1.745,1.748c.174.17.374.362.568.558a.74.74,0,0,1,.119,1.072,9.615,9.615,0,0,0-1.4,3.391.746.746,0,0,1-.833.659c-.283,0-.566,0-.856,0v2.448c.3,0,.583,0,.868,0a.746.746,0,0,1,.824.669,9.641,9.641,0,0,0,1.389,3.369.743.743,0,0,1-.118,1.091c-.2.2-.4.393-.583.567l1.748,1.748c.184-.188.38-.394.582-.594a.734.734,0,0,1,1.052-.125,9.69,9.69,0,0,0,3.411,1.412.742.742,0,0,1,.652.813c0,.292,0,.582,0,.873h2.432a.467.467,0,0,0,.014-.064c0-.27,0-.539,0-.809a.745.745,0,0,1,.651-.814,9.6,9.6,0,0,0,3.392-1.395.745.745,0,0,1,1.09.125c.2.195.387.393.566.575Z" transform="translate(0)" fill="#ababab"/>
    <path id="Path_24296" data-name="Path 24296" d="M4431.91,4921.119a7.589,7.589,0,1,1,7.559,7.606A7.6,7.6,0,0,1,4431.91,4921.119Zm13.708.007a6.12,6.12,0,1,0-6.109,6.13A6.129,6.129,0,0,0,4445.618,4921.125Z" transform="translate(-70.66 -70.668)" fill="#ababab"/>
    <path id="Path_24297" data-name="Path 24297" d="M4491.945,4990.433c.071-.068.136-.128.2-.19,1.113-1.113,2.225-2.229,3.344-3.335a1.15,1.15,0,0,1,.443-.284.688.688,0,0,1,.785.309.737.737,0,0,1-.041.848,1.718,1.718,0,0,1-.149.161q-1.981,1.981-3.962,3.962a.755.755,0,0,1-1.229,0c-.653-.65-1.307-1.3-1.955-1.956a.734.734,0,1,1,1.05-1.022q.666.668,1.333,1.333C4491.818,4990.313,4491.877,4990.368,4491.945,4990.433Z" transform="translate(-124.146 -138.934)" fill="#ababab"/>
  </g>
</svg>
