<svg xmlns="http://www.w3.org/2000/svg" width="30.601" height="30.601" viewBox="0 0 30.601 30.601">
  <g id="Group_48943" data-name="Group 48943" transform="translate(-1104.75 -2400.75)">
    <path id="Path_24201" data-name="Path 24201" d="M1262.562,2431.351a2.8,2.8,0,0,1-1.339-.785c-.062-.069-.218-.074-.331-.074-1.085-.005-2.171-.017-3.256,0a1.805,1.805,0,0,1-1.436-.588c-.685-.722-1.4-1.418-2.109-2.115a1.539,1.539,0,0,1-.486-1.175c.008-.6.01-1.2-.005-1.792a.572.572,0,0,0-.151-.355,2.3,2.3,0,0,1-.665-2.075.515.515,0,0,0-.082-.346c-.481-.66-.98-1.306-1.462-1.964a.306.306,0,0,0-.377-.127,4.023,4.023,0,1,1-1.635-7.87,6.868,6.868,0,0,1,1.655.073c.163.014.268.018.375-.129.479-.661.976-1.308,1.454-1.97a.518.518,0,0,0,.073-.349,2.351,2.351,0,0,1,.641-2.059.68.68,0,0,0,.173-.4c.019-.587.013-1.175.006-1.762a1.515,1.515,0,0,1,.468-1.153q1.138-1.122,2.261-2.26a1.458,1.458,0,0,1,1.1-.452c1.135.007,2.271,0,3.406.006a.6.6,0,0,0,.52-.21,2.571,2.571,0,0,1,1.206-.664h.717c.064.022.127.046.192.065a2.227,2.227,0,0,1,1.627,1.6c.03.1.062.2.093.3v.538a.443.443,0,0,0-.051.1,2.156,2.156,0,0,1-1.608,1.78,2.179,2.179,0,0,1-2.3-.69.511.511,0,0,0-.331-.136c-.667-.012-1.339.046-2-.02a1.764,1.764,0,0,0-1.724.722c-.253.329-.694.556-.838.914a3.626,3.626,0,0,0-.044,1.27.85.85,0,0,0,.714.72c1.294,0,2.588.006,3.882-.008a.644.644,0,0,0,.4-.178,2.2,2.2,0,0,1,2.185-.638,2.159,2.159,0,0,1,1.611,1.565c.034.112.069.223.1.334v.538a.444.444,0,0,0-.051.1,2.157,2.157,0,0,1-1.609,1.78,2.179,2.179,0,0,1-2.281-.668.508.508,0,0,0-.33-.133q-1.956-.014-3.913,0a.545.545,0,0,0-.354.148,2.387,2.387,0,0,1-1.491.74.429.429,0,0,0-.267.14q-.779,1.02-1.535,2.058a.306.306,0,0,0-.03.258c.343.749.346.747,1.16.747h.418c.5,0,1-.005,1.493.007a.4.4,0,0,1,.426.411.421.421,0,0,1-.4.465,2.968,2.968,0,0,1-.387.013h-2.121v.873h6.78v-.873H1258.8c-.08,0-.16,0-.239,0a.463.463,0,0,1-.473-.441.449.449,0,0,1,.491-.447c.747-.007,1.494-.01,2.24,0a.642.642,0,0,0,.516-.22,2.126,2.126,0,0,1,2.19-.6,2.174,2.174,0,0,1,1.586,1.629c.026.094.051.189.077.284v.478a.51.51,0,0,0-.047.108,2.146,2.146,0,0,1-1.589,1.8,2.182,2.182,0,0,1-2.29-.644.559.559,0,0,0-.358-.144c-1.016-.011-2.032-.006-3.048-.006-1.3,0-2.609,0-3.914.006a.419.419,0,0,0-.311.136,7.944,7.944,0,0,0-.378.753c.541.72,1.082,1.446,1.634,2.164a.432.432,0,0,0,.27.135,2.38,2.38,0,0,1,1.493.737.546.546,0,0,0,.353.151q1.942.016,3.884,0a.644.644,0,0,0,.4-.175,2.251,2.251,0,0,1,3.839,1.067c.016.065.042.128.063.192v.538a.44.44,0,0,0-.051.1,2.245,2.245,0,0,1-3.889,1.111.469.469,0,0,0-.3-.132q-1.987-.013-3.973,0a.464.464,0,0,0-.266.085.918.918,0,0,0-.423.936c.042.242-.012.5.015.745a.752.752,0,0,0,.173.409c.4.428.816.846,1.246,1.245a.764.764,0,0,0,.463.188c.876.018,1.752,0,2.629.013a.594.594,0,0,0,.486-.211,2.127,2.127,0,0,1,2.174-.651,2.159,2.159,0,0,1,1.612,1.565c.034.112.069.223.1.335v.538c-.021.063-.047.125-.062.189a2.186,2.186,0,0,1-1.113,1.495,6.258,6.258,0,0,1-.737.288Zm-12.679-12.168a3.133,3.133,0,1,0-3.147-3.126A3.128,3.128,0,0,0,1249.883,2419.183Zm10.825,9.512h-.353c-.816,0-1.632,0-2.448,0a.808.808,0,0,1-.635-.262q-.777-.805-1.583-1.583a.858.858,0,0,1-.294-.711c.018-.361,0-.724,0-1.086h-.9c0,.52-.022,1.027.011,1.531a.98.98,0,0,0,.238.573c.708.741,1.446,1.453,2.163,2.185a.788.788,0,0,0,.61.249c.975-.006,1.95,0,2.925,0,.085,0,.171-.013.258-.021Zm-5.308-21.65c0-.411-.027-.791.011-1.164a1.038,1.038,0,0,1,.24-.573c.53-.567,1.094-1.1,1.636-1.656a.741.741,0,0,1,.58-.242c.756.009,1.512,0,2.269,0h.57v-.863a.388.388,0,0,0-.093-.028c-1.084,0-2.169-.008-3.253,0a.59.59,0,0,0-.364.166q-1.162,1.138-2.3,2.3a.568.568,0,0,0-.176.331c-.018.574-.008,1.149-.008,1.724Zm6.2-4.058a1.34,1.34,0,0,0,1.342,1.348,1.344,1.344,0,0,0,.008-2.688A1.339,1.339,0,0,0,1261.6,2402.987Zm-7.949,6.271a1.339,1.339,0,0,0,1.338,1.353,1.344,1.344,0,0,0,.017-2.688A1.339,1.339,0,0,0,1253.648,2409.258Zm7.949.006a1.34,1.34,0,0,0,1.343,1.347,1.344,1.344,0,0,0,.006-2.688A1.339,1.339,0,0,0,1261.6,2409.264Zm-7.949,13.563a1.339,1.339,0,0,0,1.34,1.351,1.344,1.344,0,0,0,.013-2.688A1.339,1.339,0,0,0,1253.648,2422.827Zm7.949-.011a1.339,1.339,0,0,0,1.329,1.361,1.344,1.344,0,0,0,.034-2.688A1.338,1.338,0,0,0,1261.6,2422.816Zm1.357,4.949a1.344,1.344,0,0,0-.052,2.688,1.344,1.344,0,1,0,.052-2.688Zm-1.357-11.729a1.329,1.329,0,0,0,1.332,1.353,1.339,1.339,0,1,0,.027-2.679A1.328,1.328,0,0,0,1261.6,2416.036Zm-4.387,6.364v.865h3.488v-.865Zm3.5-13.56h-3.5v.854h3.5Zm-7.413,1.943-1.336,1.794.713.542,1.34-1.8Zm-1.353,8.753,1.347,1.787.716-.537-1.35-1.793Z" transform="translate(-129.841)" fill="#ababab"/>
    <path id="Path_24202" data-name="Path 24202" d="M1189.328,2482.795c-.187-.159-.36-.323-.25-.6s.34-.3.591-.294a4.111,4.111,0,0,0,.537-.006.657.657,0,0,0,.578-.935q-.731-1.908-1.462-3.816c-.039-.1-.083-.2-.112-.273-.668-.035-1.316-.034-1.955-.11a8.973,8.973,0,0,1-4.517-1.877.464.464,0,0,1-.158-.671c.168-.229.429-.248.707-.034a8.362,8.362,0,0,0,4.2,1.716c.44.052.887.05,1.381.075-.235-.612-.435-1.16-.663-1.7-.036-.084-.2-.148-.311-.159a6.686,6.686,0,0,1-5.91-8.178,6.6,6.6,0,0,1,5.485-5.035.976.976,0,0,0,.975-.8c.092-.342.249-.666.411-1.086a14.856,14.856,0,0,0-1.74.144,8.243,8.243,0,0,0-6.884,6.532,8.052,8.052,0,0,0,1.414,6.8c.052.073.11.142.159.217a.442.442,0,0,1-.078.637.43.43,0,0,1-.631-.106,14.614,14.614,0,0,1-1.065-1.722,9.334,9.334,0,0,1,6.864-13.218c.74-.127,1.5-.129,2.313-.193.12-.307.265-.684.415-1.06.131-.329.35-.453.616-.356s.344.352.219.675q-.7,1.81-1.4,3.617a1.083,1.083,0,0,1-.989.737,5.766,5.766,0,0,0-.356,11.468c.109.012.217.036.326.04a1.094,1.094,0,0,1,1.042.793q1.1,2.885,2.209,5.766c.11.288.219.576.33.864a1.518,1.518,0,0,1-.924,2.049c-.081.031-.159.07-.238.1Z" transform="translate(-68.44 -51.444)" fill="#ababab"/>
    <path id="Path_24203" data-name="Path 24203" d="M1104.75,2414.138a4.309,4.309,0,0,1,.212-.549,1.6,1.6,0,0,1,1.427-.878c.427-.016.856,0,1.283,0a.757.757,0,0,0,.754-.522q.332-.813.673-1.623a.768.768,0,0,0-.157-.906c-.286-.292-.58-.575-.864-.867a1.634,1.634,0,0,1,.013-2.4q1.144-1.157,2.3-2.3a1.644,1.644,0,0,1,2.442,0c.277.272.548.549.824.823a.768.768,0,0,0,.927.166c.528-.23,1.06-.45,1.6-.662a.763.763,0,0,0,.539-.772c0-.288,0-.577,0-.865a1.754,1.754,0,0,1,1.359-2.03h3.945c.08.035.158.073.239.1a1.515,1.515,0,0,1,.922,2.049c-.108.278-.213.557-.323.834-.139.353-.361.482-.63.37s-.338-.347-.2-.707c.1-.251.194-.5.291-.751a.676.676,0,0,0-.7-1c-.827-.006-1.653,0-2.48,0-.219,0-.438,0-.657,0a.777.777,0,0,0-.869.866c-.005.378,0,.757,0,1.135a1.646,1.646,0,0,1-1.137,1.618q-.749.292-1.486.617a1.66,1.66,0,0,1-2-.363c-.269-.266-.532-.539-.8-.8a.751.751,0,0,0-1.159,0q-1.158,1.145-2.3,2.3a.75.75,0,0,0,.008,1.157c.271.278.551.548.823.825a1.654,1.654,0,0,1,.346,1.948q-.33.75-.624,1.516a1.66,1.66,0,0,1-1.621,1.135c-.388,0-.777,0-1.165,0a.769.769,0,0,0-.836.84q-.01,1.6,0,3.2a.775.775,0,0,0,.85.857c.4.005.8,0,1.2,0a1.634,1.634,0,0,1,1.546,1.065c.224.552.462,1.1.686,1.652a1.617,1.617,0,0,1-.324,1.826c-.277.3-.577.578-.863.87a.754.754,0,0,0-.01,1.178q1.136,1.147,2.282,2.282a.756.756,0,0,0,1.181,0c.286-.277.561-.566.847-.843a1.627,1.627,0,0,1,1.872-.34c.539.229,1.083.449,1.624.675a1.592,1.592,0,0,1,1.067,1.511c.014.4,0,.8.005,1.2a.784.784,0,0,0,.882.884c.1,0,.2.005.3,0,.258-.015.49.035.581.309s-.062.454-.285.589h-1.016a5.5,5.5,0,0,1-.865-.5,1.511,1.511,0,0,1-.493-1.205c0-.388,0-.776,0-1.164a.762.762,0,0,0-.565-.813q-.774-.311-1.541-.638a.762.762,0,0,0-.975.173c-.284.279-.559.567-.846.842a1.63,1.63,0,0,1-2.355,0q-1.206-1.179-2.385-2.385a1.622,1.622,0,0,1,.007-2.331c.282-.294.579-.575.863-.868a.772.772,0,0,0,.165-.954q-.331-.781-.648-1.569a.767.767,0,0,0-.8-.549c-.368,0-.736,0-1.1,0a1.652,1.652,0,0,1-1.743-1.358.3.3,0,0,0-.045-.074Z" fill="#ababab"/>
  </g>
</svg>
