<svg xmlns="http://www.w3.org/2000/svg" width="22.573" height="28.73" viewBox="0 0 22.573 28.73">
  <g id="Group_48953" data-name="Group 48953" transform="translate(-1802.968 -3604.691)">
    <path id="Path_24258" data-name="Path 24258" d="M1820.41,3608.781h-2.052c0-.309,0-.614,0-.919a1.034,1.034,0,0,0-1.12-1.117q-5.546,0-11.093,0a1.022,1.022,0,0,0-1.123,1.079q0,9.619,0,19.237c0,.053.005.1.009.18h4.061c.223-.8.5-1,1.344-1h2.533c.818,0,1.114.226,1.318,1.015h4.065v-2.024h2.06v.3c0,1.56,0,3.121,0,4.68a3.076,3.076,0,0,1-3.206,3.21q-5.514,0-11.029,0a3.076,3.076,0,0,1-3.206-3.21q0-11.158,0-22.315a3.076,3.076,0,0,1,3.214-3.2q5.5,0,11,0a3.079,3.079,0,0,1,3.229,3.219C1820.411,3608.189,1820.41,3608.467,1820.41,3608.781Z" transform="translate(0 0)" fill="#ababab"/>
    <path id="Path_24259" data-name="Path 24259" d="M1935.045,3672.272q0,2.74,0,5.479a1.047,1.047,0,0,1-1.182,1.183q-4.134,0-8.268,0a2.718,2.718,0,0,1-2.861-2.854q0-4.615,0-9.229a2.155,2.155,0,0,1,2.265-2.279q3.893,0,7.787,0a2.15,2.15,0,0,1,2.259,2.252Q1935.049,3669.548,1935.045,3672.272Zm-2.071,1.272c.008-.138.018-.231.018-.324,0-2.083-.005-4.166.007-6.249,0-.29-.087-.355-.363-.354q-3.75.015-7.5,0c-.283,0-.361.075-.359.359.012,2.1.006,4.209.007,6.313,0,.1.009.2.012.256Z" transform="translate(-109.504 -54.748)" fill="#ababab"/>
    <path id="Path_24260" data-name="Path 24260" d="M1964.192,3701.807c.576,0,1.153-.005,1.729,0a1.007,1.007,0,0,1,1.087,1.075q.016,1.233,0,2.466a1.018,1.018,0,0,1-1.112,1.087q-1.729,0-3.459,0a1.021,1.021,0,0,1-1.118-1.081q-.015-1.233,0-2.466a1,1,0,0,1,1.079-1.082C1963,3701.8,1963.594,3701.807,1964.192,3701.807Zm.749,2.07h-1.553v.492h1.553Z" transform="translate(-144.78 -88.794)" fill="#ababab"/>
  </g>
</svg>
