<svg xmlns="http://www.w3.org/2000/svg" width="31.478" height="34.135" viewBox="0 0 31.478 34.135">
  <g id="Group_48952" data-name="Group 48952" transform="translate(-2190.357 -3396.485)">
    <path id="Path_24253" data-name="Path 24253" d="M2202.5,3430.619l-6.327-2.613c-.494-.2-.659-.448-.517-.771.134-.3.408-.355.893-.154q2.86,1.182,5.718,2.367a1.078,1.078,0,0,0,1.657-.692q3.371-8.129,6.746-16.257a1.421,1.421,0,0,0-.019-1.242c-.954-2.027-1.888-4.064-2.827-6.1a1.876,1.876,0,0,0-1.064-1.045c-.051.421-.11.814-.138,1.21-.006.08.094.185.169.251a1.7,1.7,0,0,1,.483,1.936,1.686,1.686,0,1,1-1.931-2.277c.215-.045.3-.116.308-.333.015-.285.068-.568.111-.906-.166.051-.29.081-.409.126q-3.14,1.2-6.279,2.395a1.259,1.259,0,0,0-.762.736q-3.4,8.209-6.8,16.415a1.066,1.066,0,0,0,.659,1.6c.573.239,1.149.471,1.722.712.379.159.518.425.385.722-.122.276-.4.35-.77.2-.626-.256-1.255-.507-1.876-.776a2,2,0,0,1-1.107-2.678q3.443-8.333,6.9-16.66a2.043,2.043,0,0,1,1.209-1.168q3.2-1.224,6.4-2.447a1.345,1.345,0,0,1,.478-.134c.368.009.406-.209.459-.5.206-1.134.409-2.271.675-3.393a4.081,4.081,0,0,1,1.18-2.088,1.842,1.842,0,0,1,1.644-.542,1.812,1.812,0,0,1,1.5,1.686,3.8,3.8,0,0,1-.436,2.094c-.579,1.111-1.213,2.192-1.826,3.285-.064.115-.141.222-.227.357l3.195,1.012c.359.114.72.224,1.078.343a1.969,1.969,0,0,1,1.2,1.035c.442.92.872,1.845,1.3,2.772a.5.5,0,0,1-.213.733c-.272.126-.534.01-.692-.323-.409-.862-.818-1.724-1.214-2.592a1.244,1.244,0,0,0-.818-.717c-1.111-.339-2.215-.7-3.394-1.072.069.165.109.272.157.376.819,1.772,1.63,3.548,2.465,5.313a2.4,2.4,0,0,1,.036,2.082c-1.605,3.836-3.188,7.683-4.786,11.523a.685.685,0,0,0,.007.624c.58,1.21,1.141,2.43,1.711,3.645a1.067,1.067,0,0,0,1.605.581q4.989-2.333,9.976-4.669a1.063,1.063,0,0,0,.564-1.612l-5.123-10.94c-.047-.1-.1-.2-.141-.3a.507.507,0,0,1,.227-.708.5.5,0,0,1,.68.3c.588,1.243,1.169,2.49,1.753,3.736q1.744,3.721,3.487,7.443a2.053,2.053,0,0,1-1.092,3.019q-4.956,2.323-9.916,4.64a2.04,2.04,0,0,1-2.926-1.063l-1.451-3.092c-.058.116-.1.184-.129.257-.361.871-.749,1.732-1.073,2.616a2.46,2.46,0,0,1-1.729,1.724Zm5.1-27.226c.023-.02.058-.036.073-.062.677-1.2,1.373-2.4,2.016-3.624a3.313,3.313,0,0,0,.284-1.15.865.865,0,0,0-1.593-.633,4.342,4.342,0,0,0-.67,1.21,23.3,23.3,0,0,0-.543,2.29c-.113.548-.184,1.1-.272,1.645Zm-1.89,4.163a.681.681,0,1,0-.685-.694A.671.671,0,0,0,2205.713,3407.556Z" transform="translate(0 0)" fill="#ababab"/>
    <path id="Path_24254" data-name="Path 24254" d="M2252.519,3574.5a5.731,5.731,0,0,1,5.043-6.007,5.584,5.584,0,0,1,6.037,4.534,7.21,7.21,0,0,1,.1.892c.025.393-.155.623-.469.638s-.5-.186-.525-.584a4.6,4.6,0,1,0-5.016,4.65,4.5,4.5,0,0,0,4.5-2.439c.085-.147.2-.339.339-.378a.709.709,0,0,1,.537.1c.2.144.179.386.072.606a5.2,5.2,0,0,1-1.606,1.969,5.392,5.392,0,0,1-5.9.578A5.292,5.292,0,0,1,2252.519,3574.5Z" transform="translate(-56.626 -156.663)" fill="#ababab"/>
    <path id="Path_24255" data-name="Path 24255" d="M2294.5,3602.544c-.319.786-.468.939-.8.835s-.382-.331-.2-1.111c-.1-.044-.214-.086-.32-.136a.944.944,0,0,1-.521-1.107.463.463,0,0,1,.45-.375.427.427,0,0,1,.5.348c.04.232.168.3.366.346.215.05.422.136.637.186a.356.356,0,1,0,.2-.684c-.2-.068-.4-.123-.6-.189a1.352,1.352,0,0,1-.958-1.519,1.324,1.324,0,0,1,1.344-1.139c.174,0,.266-.043.3-.22a1.322,1.322,0,0,1,.115-.346.463.463,0,0,1,.576-.274.453.453,0,0,1,.356.528,5.583,5.583,0,0,1-.14.588c.131.054.257.1.372.155a.944.944,0,0,1,.486,1.039.477.477,0,0,1-.483.421.431.431,0,0,1-.483-.367c-.028-.217-.144-.269-.31-.314-.224-.063-.444-.143-.669-.2a.337.337,0,0,0-.454.224.347.347,0,0,0,.252.467c.178.063.36.11.54.167a1.36,1.36,0,0,1-.393,2.676Z" transform="translate(-93.158 -182.781)" fill="#ababab"/>
    <path id="Path_24256" data-name="Path 24256" d="M2458.692,3611.416a1.971,1.971,0,0,1,.381.448c.931,1.949,1.845,3.906,2.764,5.861.113.241.231.479.336.723a.5.5,0,0,1-.209.71.49.49,0,0,1-.683-.276q-1.584-3.35-3.157-6.705C2457.944,3611.79,2458.174,3611.406,2458.692,3611.416Z" transform="translate(-243.864 -195.789)" fill="#ababab"/>
    <path id="Path_24257" data-name="Path 24257" d="M2437.153,3632.161c-.117.126-.223.333-.377.379a.87.87,0,0,1-.535-.124c-.082-.039-.122-.178-.168-.278q-1.522-3.232-3.04-6.466a1.125,1.125,0,0,1-.11-.31.489.489,0,0,1,.873-.365,1.258,1.258,0,0,1,.142.262q1.516,3.216,3.03,6.434C2437.029,3631.821,2437.074,3631.958,2437.153,3632.161Z" transform="translate(-220.957 -207.977)" fill="#ababab"/>
  </g>
</svg>
