<svg xmlns="http://www.w3.org/2000/svg" width="27.564" height="25.236" viewBox="0 0 27.564 25.236">
  <g id="Group_48949" data-name="Group 48949" transform="translate(-2076.75 -2894.541)">
    <path id="Path_24239" data-name="Path 24239" d="M2076.75,2917.049v-19.773c.014-.022.037-.043.04-.066a3.211,3.211,0,0,1,3.339-2.668c2.422.032,4.845.008,7.268.008q6.824,0,13.647,0a3.09,3.09,0,0,1,2.862,1.631,7.053,7.053,0,0,1,.408,1.095v19.773a.241.241,0,0,0-.042.065,3.164,3.164,0,0,1-3.337,2.661H2091q-5.491,0-10.982,0a3.1,3.1,0,0,1-2.864-1.63A6.973,6.973,0,0,1,2076.75,2917.049Zm25.842-16.745h-24.119v16.132a1.466,1.466,0,0,0,1.635,1.621h20.855a1.465,1.465,0,0,0,1.629-1.627q0-7.91,0-15.819Zm-24.114-1.755h24.106c0-.346.027-.678-.005-1a1.453,1.453,0,0,0-1.591-1.276h-20.906a2.484,2.484,0,0,0-.322.015,1.423,1.423,0,0,0-1.277,1.281C2078.458,2897.885,2078.478,2898.208,2078.478,2898.549Z" fill="#ababab"/>
    <path id="Path_24240" data-name="Path 24240" d="M2134.474,3024.192h-3.133v8.006c.156,0,.313,0,.471,0a.867.867,0,0,1,.934.86.849.849,0,0,1-.927.858q-1.359.006-2.718,0a.862.862,0,1,1-.013-1.718c.159,0,.319,0,.494,0v-8h-3.146c0,.273,0,.539,0,.8a.861.861,0,1,1-1.72.011q-.008-.833,0-1.665a.847.847,0,0,1,.88-.883q4.856-.005,9.713,0a.84.84,0,0,1,.883.878q.012.846,0,1.692a.852.852,0,0,1-.841.867.861.861,0,0,1-.873-.841C2134.461,3024.774,2134.474,3024.489,2134.474,3024.192Z" transform="translate(-44.518 -118.736)" fill="#ababab"/>
    <path id="Path_24241" data-name="Path 24241" d="M2320.2,3024.181c-.825,0-1.651,0-2.476,0a.865.865,0,1,1,0-1.718q2.489,0,4.978,0a.863.863,0,1,1,0,1.718C2321.87,3024.182,2321.035,3024.181,2320.2,3024.181Z" transform="translate(-222.784 -118.738)" fill="#ababab"/>
    <path id="Path_24242" data-name="Path 24242" d="M2320.19,3087.984c-.825,0-1.65,0-2.475,0a.863.863,0,1,1-.012-1.717q2.5-.006,5,0a.881.881,0,0,1,.932.723.848.848,0,0,1-.552.938,1.35,1.35,0,0,1-.422.056C2321.841,3087.986,2321.016,3087.984,2320.19,3087.984Z" transform="translate(-222.782 -177.96)" fill="#ababab"/>
    <path id="Path_24243" data-name="Path 24243" d="M2320.171,3152.01c-.834,0-1.668.006-2.5,0a.863.863,0,0,1-.878-1.135.807.807,0,0,1,.764-.575q2.637-.011,5.274,0a.836.836,0,0,1,.8.791.85.85,0,0,1-.666.886,1.8,1.8,0,0,1-.373.033C2321.786,3152.011,2320.978,3152.01,2320.171,3152.01Z" transform="translate(-222.765 -237.392)" fill="#ababab"/>
  </g>
</svg>
