<svg xmlns="http://www.w3.org/2000/svg" width="26.181" height="26.181" viewBox="0 0 26.181 26.181">
  <g id="Group_48956" data-name="Group 48956" transform="translate(-2193.75 -4266.75)">
    <path id="Path_24273" data-name="Path 24273" d="M2193.75,4270.176v-.767a.64.64,0,0,0,.045-.115,2.835,2.835,0,0,1,1.311-2.007,8.152,8.152,0,0,1,1.3-.536h.767a1.1,1.1,0,0,0,.143.047,3.047,3.047,0,0,1,.977,5.666.333.333,0,0,0-.19.342c0,1.815,0,3.63,0,5.445,0,.083.007.167.011.255a1.273,1.273,0,0,0,.166.021c1.875,0,3.75,0,5.624-.005a.35.35,0,0,0,.25-.154,3.032,3.032,0,0,1,1.2-1.189.29.29,0,0,0,.171-.3q-.006-2.058,0-4.116a.3.3,0,0,0-.18-.295,2.942,2.942,0,0,1-1.559-2.667,2.888,2.888,0,0,1,1.551-2.641,7.085,7.085,0,0,1,1.088-.408h.818a.642.642,0,0,0,.114.047,3.075,3.075,0,0,1,2.489,2.493,3.036,3.036,0,0,1-1.545,3.185.3.3,0,0,0-.156.309c0,1.354,0,2.708,0,4.063a.329.329,0,0,0,.193.342,2.769,2.769,0,0,1,1.142,1.137.346.346,0,0,0,.359.205c1.278-.006,2.555,0,3.833,0a1.754,1.754,0,0,0,1.9-1.9c0-1.269,0-2.538,0-3.807a.372.372,0,0,0-.217-.378,3.031,3.031,0,0,1-.059-5.237,7.136,7.136,0,0,1,1.205-.459h.767a.659.659,0,0,0,.115.044,2.925,2.925,0,0,1,2.12,1.481,7.393,7.393,0,0,1,.424,1.133v.767c-.017.057-.039.112-.05.17a2.994,2.994,0,0,1-1.505,2.112.33.33,0,0,0-.191.339q.009,1.942,0,3.885a4.78,4.78,0,0,1-.071.864,4.348,4.348,0,0,1-4.357,3.605c-1.312.008-2.624,0-3.936,0a.309.309,0,0,0-.322.181,2.824,2.824,0,0,1-1.155,1.161.329.329,0,0,0-.195.34c.006,1.33.01,2.658,0,3.987a.432.432,0,0,0,.25.437,3.051,3.051,0,0,1,.227,5.1,3.989,3.989,0,0,1-1.373.576h-.767a1.2,1.2,0,0,0-.145-.046,3.069,3.069,0,0,1-2.506-2.477,3.038,3.038,0,0,1,1.525-3.2.293.293,0,0,0,.173-.3q-.006-2.058,0-4.116a.291.291,0,0,0-.176-.3,2.814,2.814,0,0,1-1.15-1.13.368.368,0,0,0-.375-.222c-1.806.007-3.613,0-5.419,0h-.3v.309c0,1.789,0,3.578,0,5.367a.414.414,0,0,0,.238.418,3.049,3.049,0,0,1,.217,5.127,3.8,3.8,0,0,1-1.384.557h-.767a1.681,1.681,0,0,0-.165-.053,3.03,3.03,0,0,1-2.292-1.929c-.087-.218-.135-.451-.2-.677v-.767a.769.769,0,0,0,.042-.12,3.057,3.057,0,0,1,1.552-2.2.374.374,0,0,0,.142-.279q.011-7.069.01-14.138a.312.312,0,0,0-.192-.312,2.972,2.972,0,0,1-1.411-1.744C2193.838,4270.538,2193.8,4270.355,2193.75,4270.176Z" fill="#ababab"/>
  </g>
</svg>
