<svg xmlns="http://www.w3.org/2000/svg" width="30.313" height="29.46" viewBox="0 0 30.313 29.46">
  <g id="Group_48944" data-name="Group 48944" transform="translate(-1154.071 -2454.268)">
    <path id="Path_24204" data-name="Path 24204" d="M1343.175,2501.25a2.07,2.07,0,0,1-1.155,1.549,3.086,3.086,0,0,1-1,.221c-.54.035-1.084.019-1.626,0a.3.3,0,0,0-.351.25c-.207.625-.436,1.243-.679,1.855a.269.269,0,0,0,.091.372c.421.342.834.693,1.248,1.044a2.076,2.076,0,0,1,.266,3.087c-.29.348-.573.706-.89,1.029a2,2,0,0,1-2.689.21c-.52-.389-1-.827-1.505-1.242-.037-.031-.077-.058-.1-.072-.65.369-1.278.733-1.916,1.083a.741.741,0,0,1-.859-.079.693.693,0,0,1-.255-.739.823.823,0,0,1,.5-.579,9.927,9.927,0,0,0,1.266-17.189c-.529-.376-.676-.8-.391-1.209.274-.392.728-.412,1.251-.055.129.088.261.174.4.266.462-.387.913-.77,1.368-1.147a2.079,2.079,0,0,1,3.149.276c.306.36.621.717.89,1.1a2.007,2.007,0,0,1-.222,2.506c-.255.26-.543.487-.819.725s-.557.47-.848.715c.15.368.308.727.442,1.093a7.94,7.94,0,0,1,.308.986c.051.226.158.272.366.266.483-.013.966,0,1.45,0a2.068,2.068,0,0,1,2.262,1.7.574.574,0,0,0,.036.08Zm-5.646,5.459-1.549,1.847c.441.363.887.747,1.354,1.1a.48.48,0,0,0,.691-.092c.3-.329.584-.668.855-1.019a.5.5,0,0,0-.057-.742C1338.4,2507.428,1337.956,2507.069,1337.529,2506.709Zm.023-12.834c.415-.349.844-.7,1.256-1.062a.5.5,0,0,0,.084-.74c-.276-.359-.57-.706-.873-1.042a.467.467,0,0,0-.665-.1c-.467.355-.912.737-1.351,1.1Zm1.876,7.612c.591,0,1.181.014,1.769-.007a.438.438,0,0,0,.431-.448c.02-.482.016-.966,0-1.448a.431.431,0,0,0-.394-.45c-.606-.028-1.214-.01-1.809-.01Z" transform="translate(-158.792 -31.322)" fill="#ababab"/>
    <path id="Path_24205" data-name="Path 24205" d="M1261.238,2477.86c0-1.282,0-2.564,0-3.847a2.513,2.513,0,0,1,1.616-2.513c.182-.077.156-.2.156-.33q0-3.61,0-7.221c0-.631-.006-1.263,0-1.894a.342.342,0,0,0-.2-.348c-.815-.461-1.62-.939-2.436-1.4a.918.918,0,0,1-.518-.885c.013-1.125.011-2.249,0-3.374a.88.88,0,0,1,.484-.845c.464-.26.922-.532,1.385-.794a.769.769,0,1,1,.75,1.325c-.3.176-.6.334-.89.526a.458.458,0,0,0-.187.315q-.024,1.168,0,2.338a.442.442,0,0,0,.183.315q1,.6,2.022,1.167a.408.408,0,0,0,.339,0q1.034-.573,2.048-1.181a.379.379,0,0,0,.158-.272q.019-1.2,0-2.4a.391.391,0,0,0-.161-.273c-.306-.2-.63-.366-.943-.553a.765.765,0,1,1,.751-1.325c.481.271.955.553,1.434.826a.844.844,0,0,1,.457.8q-.01,1.716,0,3.433a.88.88,0,0,1-.493.839c-.814.462-1.619.94-2.435,1.4a.386.386,0,0,0-.226.393q.01,4.557,0,9.115a.278.278,0,0,0,.188.312,2.447,2.447,0,0,1,1.582,2.384c.02,2.663.014,5.327,0,7.99a1.731,1.731,0,0,1-1.664,1.807,10.66,10.66,0,0,1-1.744,0,1.745,1.745,0,0,1-1.666-1.867C1261.233,2480.5,1261.238,2479.182,1261.238,2477.86Zm3.548,0c0-1.331,0-2.662,0-3.993a1,1,0,1,0-2.009-.009c-.006,2.662,0,5.323,0,7.985,0,.237.1.342.339.339.424-.005.848,0,1.272,0,.357,0,.406-.051.406-.416Q1264.787,2479.813,1264.786,2477.861Z" transform="translate(-94.548)" fill="#ababab"/>
    <path id="Path_24206" data-name="Path 24206" d="M1162.462,2491.076c.152-.1.28-.2.411-.282a.785.785,0,0,1,1.1.172.765.765,0,0,1-.221,1.069,10.839,10.839,0,0,0-2.013,1.777,9.929,9.929,0,0,0,2.864,15.257,4.361,4.361,0,0,1,.388.213.776.776,0,0,1,.253.995.76.76,0,0,1-.969.332c-.372-.179-.73-.388-1.087-.6-.237-.139-.46-.3-.706-.465-.5.415-.983.828-1.476,1.234a1.968,1.968,0,0,1-2.125.362,3.05,3.05,0,0,1-.871-.634,9.262,9.262,0,0,1-.787-.922,2.071,2.071,0,0,1,.27-2.982c.424-.368.857-.728,1.294-1.082a.27.27,0,0,0,.088-.373c-.245-.622-.477-1.25-.688-1.884a.265.265,0,0,0-.309-.223c-.552.009-1.1.008-1.657,0a2.067,2.067,0,0,1-2.146-2.146c0-.414-.01-.829,0-1.243a2.058,2.058,0,0,1,2.078-2.062q.843-.018,1.687,0c.2,0,.28-.055.346-.255.2-.626.433-1.245.677-1.856a.284.284,0,0,0-.1-.393c-.415-.334-.82-.68-1.226-1.025a2.073,2.073,0,0,1-.268-3.066q.349-.422.7-.838a2.074,2.074,0,0,1,3.088-.263C1161.523,2490.284,1161.981,2490.674,1162.462,2491.076Zm-2.746,15.656c-.414.349-.833.691-1.24,1.047a.524.524,0,0,0-.108.782c.277.358.57.7.874,1.038a.478.478,0,0,0,.692.072c.456-.354.893-.732,1.333-1.1Zm1.531-14.681c-.418-.35-.835-.711-1.266-1.055a.5.5,0,0,0-.743.049c-.307.333-.6.683-.876,1.041a.488.488,0,0,0,.04.7c.427.388.875.753,1.3,1.113Zm-3.425,7.085c-.591,0-1.181-.015-1.769.007a.44.44,0,0,0-.432.448c-.02.482-.016.966,0,1.448a.43.43,0,0,0,.394.45c.606.028,1.214.01,1.809.01Z" transform="translate(0 -31.34)" fill="#ababab"/>
    <path id="Path_24207" data-name="Path 24207" d="M1237.876,2536.079a.839.839,0,0,1,.737.592.817.817,0,0,1-.336.851,11.718,11.718,0,0,0-1.444,1.158,5.107,5.107,0,0,0-.207,6.593,1.736,1.736,0,0,1,.345.571.689.689,0,0,1-.383.839.73.73,0,0,1-.932-.195,6.575,6.575,0,0,1-1.425-2.625,6.652,6.652,0,0,1,3.163-7.59A3.861,3.861,0,0,1,1237.876,2536.079Z" transform="translate(-71.424 -73.117)" fill="#ababab"/>
    <path id="Path_24208" data-name="Path 24208" d="M1323.223,2543.794a6.753,6.753,0,0,1-1.585,4.487.756.756,0,0,1-1.179-.946,5.981,5.981,0,0,0,1.026-1.916,5.132,5.132,0,0,0-1.9-5.591c-.128-.092-.261-.178-.383-.278a.776.776,0,0,1-.148-1.037.749.749,0,0,1,1-.208,6.518,6.518,0,0,1,2.72,3.287,7.363,7.363,0,0,1,.322,1.165C1323.171,2543.141,1323.193,2543.537,1323.223,2543.794Z" transform="translate(-147.327 -75.008)" fill="#ababab"/>
  </g>
</svg>
