<svg xmlns="http://www.w3.org/2000/svg" width="27.565" height="27.627" viewBox="0 0 27.565 27.627">
  <g id="Group_48946" data-name="Group 48946" transform="translate(-2088.022 -2709.492)">
    <path id="Path_24216" data-name="Path 24216" d="M2272.82,2898.06a7.234,7.234,0,0,1-.753-.82c-.323-.477-.589-.994-.9-1.533-.427.244-.838.481-1.25.716-.855.485-1.561.075-1.563-.915q-.005-3.146,0-6.292c0-.985.715-1.4,1.565-.911q2.724,1.568,5.443,3.143a.973.973,0,0,1,0,1.834c-.4.235-.805.467-1.224.71.342.6.669,1.158.99,1.725a1.01,1.01,0,0,1-.4,1.56c-.455.269-.92.522-1.381.782Zm1.9-5.7-5.237-3.023v6.049l.995-.575a1.072,1.072,0,0,1,1.717.457c.313.54.626,1.08.948,1.635l1.034-.6c-.344-.6-.673-1.159-.993-1.726a1.018,1.018,0,0,1,.412-1.562C2273.948,2892.811,2274.3,2892.609,2274.724,2892.363Z" transform="translate(-162.49 -160.941)" fill="#ababab"/>
    <path id="Path_24217" data-name="Path 24217" d="M2114.477,2716.242h-25.341c0,.514.032,1.018-.016,1.515a.8.8,0,0,1-.343.543.666.666,0,0,1-.56-.092.6.6,0,0,1-.183-.45c-.011-2.073-.021-4.146,0-6.218a2.114,2.114,0,0,1,2.2-2.036c2.035,0,4.071.008,6.107.007q7.624-.005,15.248-.017c.6,0,1.209-.007,1.813.009a2.128,2.128,0,0,1,2.18,2.216c0,10.227,0,10.662,0,20.89a2.129,2.129,0,0,1-1.169,1.994.567.567,0,0,1-.771-.1.527.527,0,0,1,.176-.843,1.16,1.16,0,0,0,.658-1.138c-.006-8.574,0-7.356,0-15.93Zm-25.332-1.147h25.332c0-1.067,0-2.114,0-3.159,0-.964-.355-1.323-1.307-1.323l-21.055,0c-.641,0-1.283-.006-1.924.006a.992.992,0,0,0-1.038.907C2089.127,2712.7,2089.145,2713.886,2089.145,2715.095Z" transform="translate(0)" fill="#ababab"/>
    <path id="Path_24218" data-name="Path 24218" d="M2088.045,2822.442q0-5.516,0-11.031a2.625,2.625,0,0,1,.009-.37.511.511,0,0,1,.488-.473.494.494,0,0,1,.566.373,1.876,1.876,0,0,1,.045.511c0,7.28,0,4.768.011,12.048a1.923,1.923,0,0,0,.234.9.976.976,0,0,0,.944.392c1.222,0,2.443,0,3.665,0q5.071,0,10.143,0a2.04,2.04,0,0,1,.441.029.5.5,0,0,1,.417.533.5.5,0,0,1-.43.523,1.576,1.576,0,0,1-.331.023q-6.959,0-13.919,0a2.125,2.125,0,0,1-2.23-1.669,3.211,3.211,0,0,1-.052-.7C2088.044,2819.905,2088.045,2826.07,2088.045,2822.442Z" transform="translate(-0.018 -91.074)" fill="#ababab"/>
    <path id="Path_24219" data-name="Path 24219" d="M2146.818,2850.808h-7.363c-1.039,0-1.479-.444-1.482-1.488q0-.462,0-.925c0-1.061.44-1.494,1.514-1.494h14.652c1.089,0,1.518.432,1.52,1.525q0,.426,0,.851c0,1.1-.43,1.53-1.514,1.53Zm-.034-1.111c2.455,0,4.91,0,7.366.006.3,0,.43-.074.4-.391-.023-.27,0-.542,0-.814,0-.486,0-.487-.483-.487h-14.509a1.424,1.424,0,0,1-.148,0c-.234-.025-.339.067-.328.314a6.635,6.635,0,0,1,0,.924c-.033.358.095.458.453.456C2141.948,2849.69,2144.366,2849.7,2146.785,2849.7Z" transform="translate(-45.009 -123.816)" fill="#ababab"/>
    <path id="Path_24220" data-name="Path 24220" d="M2174.435,2800.39q-2.515,0-5.03,0a1.353,1.353,0,0,1-.366-.025.549.549,0,0,1,.092-1.079,2.538,2.538,0,0,1,.3-.005h10.022a2.377,2.377,0,0,1,.3.006.55.55,0,0,1,.052,1.089,1.706,1.706,0,0,1-.368.015Z" transform="translate(-72.629 -80.904)" fill="#ababab"/>
    <path id="Path_24221" data-name="Path 24221" d="M2113.8,2729.916a1.691,1.691,0,1,1,1.7-1.7A1.692,1.692,0,0,1,2113.8,2729.916Zm.583-1.7a.585.585,0,0,0-.608-.566.577.577,0,0,0,.021,1.155A.59.59,0,0,0,2114.379,2728.213Z" transform="translate(-21.692 -15.357)" fill="#ababab"/>
    <path id="Path_24222" data-name="Path 24222" d="M2158.71,2726.536a1.691,1.691,0,1,1-1.7,1.682A1.7,1.7,0,0,1,2158.71,2726.536Zm-.021,1.112a.573.573,0,0,0-.569.6.58.58,0,0,0,.579.555.591.591,0,0,0,.593-.584A.585.585,0,0,0,2158.69,2727.648Z" transform="translate(-62.162 -15.358)" fill="#ababab"/>
    <path id="Path_24223" data-name="Path 24223" d="M2203.625,2726.536a1.69,1.69,0,1,1-1.7,1.683A1.7,1.7,0,0,1,2203.625,2726.536Zm.584,1.686a.584.584,0,0,0-.6-.573.574.574,0,0,0-.572.6.58.58,0,0,0,.577.558A.592.592,0,0,0,2204.209,2728.222Z" transform="translate(-102.635 -15.358)" fill="#ababab"/>
  </g>
</svg>
