<svg xmlns="http://www.w3.org/2000/svg" width="26.648" height="26.703" viewBox="0 0 26.648 26.703">
  <g id="Group_48960" data-name="Group 48960" transform="translate(-906.44 -4353.998)">
    <path id="Path_24277" data-name="Path 24277" d="M918.982,4354h1.562a1.45,1.45,0,0,0,.2.042,12.68,12.68,0,0,1,5.814,1.834,13.152,13.152,0,0,1,6.323,9.156c.093.5.14,1.008.208,1.512v1.562a1.748,1.748,0,0,0-.044.225,12.146,12.146,0,0,1-1.2,4.6,13.163,13.163,0,0,1-11.049,7.681,1.025,1.025,0,0,0-.249.1h-1.562a1.232,1.232,0,0,0-.249-.1c-.59-.09-1.189-.137-1.771-.264a13.342,13.342,0,0,1-10.453-14.352,12.875,12.875,0,0,1,3.234-7.429,13.082,13.082,0,0,1,7.724-4.354C917.968,4354.116,918.477,4354.066,918.982,4354Zm.771,3.332a9.994,9.994,0,1,0,10,10A10.033,10.033,0,0,0,919.752,4357.33Z" fill="#ababab"/>
    <path id="Path_24278" data-name="Path 24278" d="M983.545,4422.113a8.88,8.88,0,1,1-8.888,8.859A8.875,8.875,0,0,1,983.545,4422.113Zm.017,16.648a7.508,7.508,0,0,0,2.232-.328.581.581,0,0,0,.486-.641,5,5,0,0,0-.813-2.353,2.255,2.255,0,0,0-3.865-.008,4.9,4.9,0,0,0-.8,2.249.6.6,0,0,0,.463.75A7.628,7.628,0,0,0,983.562,4438.762Zm-.055-15.482a7.539,7.539,0,0,0-2.273.34.564.564,0,0,0-.451.614,4.983,4.983,0,0,0,.791,2.334,2.259,2.259,0,0,0,3.909.009,5,5,0,0,0,.8-2.333.572.572,0,0,0-.465-.629A7.67,7.67,0,0,0,983.507,4423.279Zm-5.48,7.184c.3-.046.6-.074.894-.14a1.866,1.866,0,0,0,1.477-2.621,6.5,6.5,0,0,0-1.4-2.252.559.559,0,0,0-.885.037,7.751,7.751,0,0,0-2.156,3.839.581.581,0,0,0,.36.738A4.4,4.4,0,0,0,978.026,4430.463Zm10.984.045.019-.073a3.889,3.889,0,0,0,1.689-.357.578.578,0,0,0,.377-.793c-.082-.309-.165-.62-.274-.92a7.608,7.608,0,0,0-1.9-2.913.554.554,0,0,0-.851,0,6.383,6.383,0,0,0-1.445,2.381,1.777,1.777,0,0,0,.948,2.288A9.817,9.817,0,0,0,989.011,4430.508Zm.037,1.039c-.25.025-.5.04-.748.078a1.908,1.908,0,0,0-1.625,2.69,6.538,6.538,0,0,0,1.379,2.212.551.551,0,0,0,.85.028,7.708,7.708,0,0,0,2.217-3.926.566.566,0,0,0-.358-.7A4.213,4.213,0,0,0,989.047,4431.547Zm-8.51,2.072a1.663,1.663,0,0,0-1.012-1.645,3.789,3.789,0,0,0-3.291.084.552.552,0,0,0-.286.684,7.711,7.711,0,0,0,2.193,3.883.556.556,0,0,0,.9-.045,13.251,13.251,0,0,0,.87-1.166A3.606,3.606,0,0,0,980.537,4433.619Zm5.214-2.63a2.22,2.22,0,1,0-2.21,2.228A2.243,2.243,0,0,0,985.751,4430.989Z" transform="translate(-63.769 -63.675)" fill="#ababab"/>
  </g>
</svg>
