<svg xmlns="http://www.w3.org/2000/svg" width="27.565" height="27.561" viewBox="0 0 27.565 27.561">
  <g id="Group_48947" data-name="Group 48947" transform="translate(-1115.173 -2411.198)">
    <path id="Path_24224" data-name="Path 24224" d="M1119.9,2413.551c0-.288,0-.542,0-.8a1.57,1.57,0,0,1,3.14,0c.005.254,0,.508,0,.776h11.828c0-.271,0-.525,0-.779a1.57,1.57,0,0,1,3.14,0c.005.253,0,.507,0,.792h.336c.9,0,1.8,0,2.7,0a1.577,1.577,0,0,1,1.686,1.694q0,10.915,0,21.83a1.565,1.565,0,0,1-1.687,1.683h-24.192a1.564,1.564,0,0,1-1.684-1.687q0-10.915,0-21.83a1.577,1.577,0,0,1,1.69-1.691c.9-.005,1.8,0,2.7,0Zm-3.938,6.318v.307q0,8.411,0,16.821c0,.708.269.975.982.975h24.022c.713,0,.982-.267.982-.975q0-8.41,0-16.821c0-.1-.01-.2-.015-.307Zm0-.827h25.973c0-.081.012-.146.012-.211,0-1.2,0-2.391,0-3.586a.806.806,0,0,0-.917-.9q-1.38,0-2.761,0c-.081,0-.163.012-.26.02,0,.215,0,.4,0,.593a1.57,1.57,0,0,1-3.138,0c-.005-.2,0-.391,0-.587h-11.829c0,.21,0,.4,0,.588a1.569,1.569,0,0,1-3.138,0c-.005-.2,0-.392,0-.591a1.363,1.363,0,0,0-.147-.021c-.987,0-1.974-.007-2.96,0a.779.779,0,0,0-.83.845c-.007.749,0,1.5,0,2.249Zm21.258-5.192c0-.36.008-.721,0-1.081a.778.778,0,0,0-1.555-.018q-.021,1.08,0,2.16a.769.769,0,0,0,.768.786.779.779,0,0,0,.789-.8C1137.228,2414.551,1137.22,2414.2,1137.22,2413.85Zm-14.966.006c0-.351.007-.7,0-1.052a.781.781,0,1,0-1.561,0q-.012,1.038,0,2.075a.781.781,0,1,0,1.561,0C1122.262,2414.539,1122.254,2414.2,1122.254,2413.856Z" transform="translate(0 0)" fill="#ababab"/>
    <path id="Path_24225" data-name="Path 24225" d="M1239.533,2687.53c0,.332.008.664,0,1a.753.753,0,0,1-.773.775q-1.024.015-2.048,0a.751.751,0,0,1-.765-.757q-.019-1.038,0-2.077a.755.755,0,0,1,.746-.75c.7-.016,1.4-.017,2.1,0a.751.751,0,0,1,.734.759c.011.35,0,.7,0,1.052Zm-2.789.974h1.981v-1.987h-1.981Z" transform="translate(-111.596 -253.671)" fill="#ababab"/>
    <path id="Path_24226" data-name="Path 24226" d="M1311.883,2689.306c-.332,0-.664.007-1,0a.752.752,0,0,1-.777-.772q-.016-1.024,0-2.048a.754.754,0,0,1,.757-.766c.692-.015,1.384-.016,2.076,0a.761.761,0,0,1,.752.774c.011.673.01,1.346,0,2.02a.766.766,0,0,1-.791.792C1312.566,2689.313,1312.224,2689.306,1311.883,2689.306Zm-.974-.8h1.976v-1.98h-1.976Z" transform="translate(-180.134 -253.672)" fill="#ababab"/>
    <path id="Path_24227" data-name="Path 24227" d="M1239.545,2557.791c0,.323.006.645,0,.967a.756.756,0,0,1-.778.8q-1.009.019-2.02,0a.762.762,0,0,1-.792-.79q-.014-1,0-1.992a.77.77,0,0,1,.78-.806c.673-.014,1.347-.013,2.02,0a.77.77,0,0,1,.789.8C1239.552,2557.108,1239.545,2557.449,1239.545,2557.791Zm-.812.977v-1.993h-1.971v1.993Z" transform="translate(-111.608 -133.775)" fill="#ababab"/>
    <path id="Path_24228" data-name="Path 24228" d="M1311.879,2559.56c-.332,0-.664.01-1,0a.752.752,0,0,1-.773-.776q-.015-1.01,0-2.02a.76.76,0,0,1,.763-.791c.682-.016,1.365-.015,2.048,0a.766.766,0,0,1,.776.781q.017,1.01,0,2.02a.772.772,0,0,1-.795.79l-.057,0h-.967Zm1.015-2.78h-1.98v1.982h1.98Z" transform="translate(-180.134 -133.773)" fill="#ababab"/>
    <path id="Path_24229" data-name="Path 24229" d="M1386.063,2559.561c-.341,0-.683.009-1.024,0a.749.749,0,0,1-.774-.774q-.018-1.023,0-2.048a.749.749,0,0,1,.757-.765c.682-.016,1.365-.015,2.048,0a.768.768,0,0,1,.78.779c.015.673.014,1.346,0,2.02a.776.776,0,0,1-.794.793l-.057,0h-.939Zm.981-.8v-1.993h-1.975v1.993Z" transform="translate(-248.659 -133.773)" fill="#ababab"/>
    <path id="Path_24230" data-name="Path 24230" d="M1239.551,2622.759c0,.322.005.645,0,.967a.77.77,0,0,1-.771.814q-1.023.026-2.048,0a.771.771,0,0,1-.772-.816q-.011-.981,0-1.962a.764.764,0,0,1,.8-.809q1-.016,1.991,0a.763.763,0,0,1,.8.811c0,.019,0,.038,0,.057Q1239.552,2622.289,1239.551,2622.759Zm-2.785-1.014v2h1.977v-2Z" transform="translate(-111.613 -193.825)" fill="#ababab"/>
    <path id="Path_24231" data-name="Path 24231" d="M1310.13,2622.729c0-.332-.008-.664,0-1a.749.749,0,0,1,.772-.776q1.024-.019,2.048,0a.752.752,0,0,1,.769.782c.01.664.009,1.327,0,1.991a.77.77,0,0,1-.775.812q-1.023.026-2.048,0a.763.763,0,0,1-.766-.79C1310.123,2623.412,1310.13,2623.07,1310.13,2622.729Zm.8,1.013h1.981v-1.99h-1.981Z" transform="translate(-180.156 -193.828)" fill="#ababab"/>
    <path id="Path_24232" data-name="Path 24232" d="M1163.5,2689.319c-.332,0-.664.007-1,0a.756.756,0,0,1-.775-.749q-.027-1.037,0-2.076a.768.768,0,0,1,.795-.763q1-.015,1.991,0a.761.761,0,0,1,.8.783q.019,1.009,0,2.019a.755.755,0,0,1-.791.787C1164.187,2689.326,1163.845,2689.32,1163.5,2689.319Zm-.969-2.79v1.993h1.986v-1.993Z" transform="translate(-43.014 -253.686)" fill="#ababab"/>
    <path id="Path_24233" data-name="Path 24233" d="M1384.288,2622.727c0-.332-.009-.664,0-1a.748.748,0,0,1,.774-.774q1.024-.018,2.048,0a.747.747,0,0,1,.765.757c.017.682.016,1.366,0,2.048a.767.767,0,0,1-.779.781c-.682.016-1.366.018-2.048,0a.762.762,0,0,1-.762-.793C1384.279,2623.41,1384.288,2623.068,1384.288,2622.727Zm2.794-.98h-1.994v2h1.994Z" transform="translate(-248.685 -193.83)" fill="#ababab"/>
    <path id="Path_24234" data-name="Path 24234" d="M1165.336,2622.747c0,.332.008.664,0,1a.768.768,0,0,1-.785.8q-1.009.023-2.019,0a.774.774,0,0,1-.786-.8q-.017-1,0-1.991a.762.762,0,0,1,.79-.793q1.009-.017,2.019,0a.753.753,0,0,1,.782.8C1165.344,2622.083,1165.337,2622.415,1165.336,2622.747Zm-.8-1h-1.987v2h1.987Z" transform="translate(-43.028 -193.827)" fill="#ababab"/>
  </g>
</svg>
