<svg xmlns="http://www.w3.org/2000/svg" width="19.441" height="19.446" viewBox="0 0 19.441 19.446">
  <path id="Icon_awesome-facebook-square" data-name="Icon awesome-facebook-square" d="M17.358,2.25H2.083A2.083,2.083,0,0,0,0,4.334V19.613A2.083,2.083,0,0,0,2.083,21.7H8.039V15.085H5.3V11.973H8.039V9.6c0-2.7,1.606-4.188,4.065-4.188a16.558,16.558,0,0,1,2.409.21V8.271H13.156A1.556,1.556,0,0,0,11.4,9.952v2.021h2.985l-.477,3.112H11.4V21.7h5.956a2.083,2.083,0,0,0,2.083-2.084V4.334A2.083,2.083,0,0,0,17.358,2.25Z" transform="translate(0 -2.25)" fill="#fff"/>
</svg>
