<svg xmlns="http://www.w3.org/2000/svg" width="20.519" height="20.52" viewBox="0 0 20.519 20.52">
  <g id="Icon_feather-instagram" data-name="Icon feather-instagram" transform="translate(1.001 1)">
    <path id="Path_23171" data-name="Path 23171" d="M7.63,3h9.26a4.63,4.63,0,0,1,4.63,4.63v9.26a4.63,4.63,0,0,1-4.63,4.63H7.63A4.63,4.63,0,0,1,3,16.89V7.63A4.63,4.63,0,0,1,7.63,3Z" transform="translate(-3.001 -3)" fill="none" stroke="#fff" stroke-linecap="round" stroke-linejoin="round" stroke-width="2"/>
    <path id="Path_23172" data-name="Path 23172" d="M19.432,15.1a3.7,3.7,0,1,1-3.12-3.121A3.7,3.7,0,0,1,19.432,15.1Z" transform="translate(-6.47 -6.419)" fill="none" stroke="#fff" stroke-linecap="round" stroke-linejoin="round" stroke-width="2"/>
    <path id="Path_23173" data-name="Path 23173" d="M26.25,9.75h0" transform="translate(-11.898 -5.583)" fill="none" stroke="#fff" stroke-linecap="round" stroke-linejoin="round" stroke-width="2"/>
  </g>
</svg>
