<svg id="twitter-sign" xmlns="http://www.w3.org/2000/svg" width="19.36" height="19.365" viewBox="0 0 19.36 19.365">
  <path id="Path_23998" data-name="Path 23998" d="M324.7,340.715v-12.86a1.04,1.04,0,0,0,.033-.127,3.636,3.636,0,0,1,2.724-3.023c.166-.039.331-.072.492-.1h12.857a.416.416,0,0,0,.088.033,3.645,3.645,0,0,1,3.166,3.609c-.011,4.029-.006,8.058-.006,12.081a3.283,3.283,0,0,1-.309,1.487,3.569,3.569,0,0,1-3.387,2.15c-3.177.006-6.354,0-9.531,0-.879,0-1.751.017-2.63-.006a3.607,3.607,0,0,1-3.4-2.752C324.766,341.047,324.733,340.881,324.7,340.715Zm14.741-9.605-.033-.066a2.573,2.573,0,0,0,1.061-1.409,5.132,5.132,0,0,1-1.569.608.264.264,0,0,1-.193-.05,2.606,2.606,0,0,0-1.519-.73,2.639,2.639,0,0,0-2.923,2.144,7.938,7.938,0,0,0-.005,1.089,7.654,7.654,0,0,1-5.47-2.785,2.714,2.714,0,0,0,.74,3.531l-.033.05-1.177-.321a2.74,2.74,0,0,0,2.094,2.581.2.2,0,0,1-.006.055h-1.039a2.736,2.736,0,0,0,2.459,1.851,5.354,5.354,0,0,1-3.851,1.1c.039.033.055.05.072.061a7.351,7.351,0,0,0,1.912.835,7.641,7.641,0,0,0,3.144.188,6.86,6.86,0,0,0,3.641-1.575,7.677,7.677,0,0,0,2.768-6.085.327.327,0,0,1,.1-.216c.182-.171.392-.321.564-.5.216-.221.4-.47.6-.7-.011-.005-.022-.017-.033-.022C340.319,330.867,339.883,330.989,339.441,331.11Z" transform="translate(-324.7 -324.6)" fill="#fff"/>
</svg>
