<svg xmlns="http://www.w3.org/2000/svg" width="26.334" height="18.52" viewBox="0 0 26.334 18.52">
  <path id="Icon_awesome-youtube" data-name="Icon awesome-youtube" d="M26.834,7.4a3.309,3.309,0,0,0-2.328-2.344C22.452,4.5,14.217,4.5,14.217,4.5s-8.235,0-10.289.554A3.309,3.309,0,0,0,1.6,7.4a34.727,34.727,0,0,0-.55,6.381A34.727,34.727,0,0,0,1.6,20.16a3.26,3.26,0,0,0,2.328,2.306c2.054.554,10.289.554,10.289.554s8.235,0,10.289-.554a3.26,3.26,0,0,0,2.328-2.306,34.727,34.727,0,0,0,.55-6.381,34.727,34.727,0,0,0-.55-6.381ZM11.524,17.7V9.862l6.883,3.916L11.524,17.7Z" transform="translate(-1.05 -4.5)" fill="#fff"/>
</svg>
