<svg xmlns="http://www.w3.org/2000/svg" xmlns:xlink="http://www.w3.org/1999/xlink" width="49" height="49" viewBox="0 0 49 49">
  <defs>
    <clipPath id="clip-path">
      <rect id="Rectangle_7068" data-name="Rectangle 7068" width="49" height="49" transform="translate(745 756)" fill="#fff" stroke="#707070" stroke-width="1" opacity="0.61"/>
    </clipPath>
  </defs>
  <g id="Mask_Group_216" data-name="Mask Group 216" transform="translate(-745 -756)" clip-path="url(#clip-path)">
    <g id="Group_48899" data-name="Group 48899" transform="translate(424.048 513)">
      <rect id="Rectangle_7056" data-name="Rectangle 7056" width="24.938" height="36.714" transform="translate(333.453 248.51)" fill="#f3f3f3"/>
      <rect id="Rectangle_7057" data-name="Rectangle 7057" width="24.938" height="4.453" rx="2.226" transform="translate(333.453 285.224)" fill="#8fb641"/>
      <g id="Group_48899-2" data-name="Group 48899" transform="translate(330.952 245)">
        <path id="Path_24165" data-name="Path 24165" d="M360.921,253.14a1.517,1.517,0,0,0-1.407-1.54l-.388-.047v-.493q0-1.745,0-3.491a2.406,2.406,0,0,0-1.016-2.1,6.356,6.356,0,0,0-.986-.471H334.757c-1.6.642-2,1.239-2,3.011v3.542l-.432.052a1.5,1.5,0,0,0-1.362,1.49q-.02,3.535,0,7.072a1.5,1.5,0,0,0,1.329,1.474l.436.063v1.434c-.1.014-.167.028-.238.035a1.543,1.543,0,0,0-1.534,1.69c0,.369,0,.736,0,1.105,0,1.346.375,1.788,1.7,2,.025,0,.046.031.072.05v.6c-.086.014-.141.028-.2.034a1.545,1.545,0,0,0-1.568,1.7c0,.515-.011,1.032,0,1.547a1.522,1.522,0,0,0,1.351,1.5c.141.02.279.045.446.072v.514q0,2.233,0,4.464a2.377,2.377,0,0,0,.031.483.647.647,0,0,0,1.278-.055,4.8,4.8,0,0,0,.014-.53q0-13.5-.01-27c0-.454.12-.56.564-.559q11.314.021,22.628.01h.536v9.847c0,.943,0,1.886,0,2.829,0,.172-.015.415.085.5a1.132,1.132,0,0,0,.69.338c.391-.02.546-.353.546-.733,0-1.061,0-2.121,0-3.182,0-.156.014-.31.022-.469l.352-.046a1.523,1.523,0,0,0,1.422-1.573Q360.936,255.725,360.921,253.14Zm-28.64,6.835q.005-3.355,0-6.709c0-.306.151-.381.447-.3v7.346C332.414,260.37,332.28,260.271,332.28,259.975Zm.447,12.092c-.294.057-.449-.017-.446-.321,0-.469.005-.938,0-1.407,0-.3.134-.4.446-.316Zm0-5.492c-.3.078-.453,0-.449-.326.005-.469,0-.939,0-1.408,0-.309.16-.37.448-.3ZM357.8,249.433H334.1c0-.727-.033-1.418.01-2.106a1.056,1.056,0,0,1,1.093-1c.118-.005.235,0,.353,0h20.769c1.111,0,1.473.365,1.475,1.487C357.8,248.341,357.8,248.869,357.8,249.433Zm1.8,8.782c0,.3-.144.388-.446.324v-5.577c.31-.084.446.013.446.312Q359.6,255.745,359.6,258.216Z" transform="translate(-330.952 -245)" fill="#306c3a"/>
        <path id="Path_24166" data-name="Path 24166" d="M390.145,261.475c0-1.122-.363-1.487-1.475-1.487H367.9c-.118,0-.235,0-.353,0a1.056,1.056,0,0,0-1.093,1c-.042.688-.01,1.379-.01,2.106h23.7C390.145,262.531,390.145,262,390.145,261.475Zm-10.219.886q-1.651.013-3.3,0a.669.669,0,0,1-.726-.664.658.658,0,0,1,.727-.654c.557-.011,1.116,0,1.674,0,.543,0,1.086-.007,1.629,0,.458.008.734.25.746.635A.673.673,0,0,1,379.926,262.361Z" transform="translate(-363.297 -258.662)" fill="#8fb641"/>
        <path id="Path_24167" data-name="Path 24167" d="M650.406,335.084q0,2.47,0,4.941c0,.3-.144.388-.446.324v-5.577C650.27,334.688,650.406,334.785,650.406,335.084Z" transform="translate(-621.758 -326.809)" fill="#8fb641"/>
        <path id="Path_24168" data-name="Path 24168" d="M346.436,527.768v2.044c-.293.057-.449-.017-.446-.321,0-.468.005-.938,0-1.407C345.986,527.786,346.124,527.687,346.436,527.768Z" transform="translate(-344.66 -502.745)" fill="#8fb641"/>
        <path id="Path_24169" data-name="Path 24169" d="M346.438,465.771v2.034c-.3.078-.453,0-.449-.326.005-.47,0-.939,0-1.408C345.988,465.762,346.15,465.7,346.438,465.771Z" transform="translate(-344.66 -446.23)" fill="#8fb641"/>
        <path id="Path_24170" data-name="Path 24170" d="M346.429,334.771v7.346c-.315.062-.449-.037-.449-.333q.005-3.355,0-6.709C345.981,334.769,346.133,334.694,346.429,334.771Z" transform="translate(-344.651 -326.809)" fill="#8fb641"/>
        <path id="Path_24171" data-name="Path 24171" d="M353.313,506.026c-.108-.041-.216-.085-.325-.123a2.415,2.415,0,0,1-1.67-2.358c-.019-1.974-.009-3.948,0-5.922,0-.53.243-.816.658-.82s.659.276.664.807c.007.853,0,1.7,0,2.594h23.717v-.563q0-8.4,0-16.795c0-.133,0-.265,0-.4.017-.5.253-.766.664-.762s.651.279.657.776c.01.972,0,1.945,0,2.917q0,8.817,0,17.635c0,1.771-.393,2.362-2,3.011h-5.57a2,2,0,0,1-.353-.478c-.163-.469.183-.845.762-.846,1.546,0,3.093,0,4.639,0a1.027,1.027,0,0,0,1.143-.883c.058-.727.014-1.462.014-2.219H352.638c0,.584,0,1.141,0,1.7,0,1.021.393,1.406,1.422,1.406q6.583,0,13.166,0c.373,0,.713.03.872.439s-.1.657-.375.89Z" transform="translate(-349.508 -460.763)" fill="#306c3a"/>
        <path id="Path_24172" data-name="Path 24172" d="M414.277,562.691a1.932,1.932,0,0,0-2.168-2.141c-2.415,0-6.731,0-9.146,0-2.489,0-4.977,0-7.466,0a1.894,1.894,0,0,0-2.038,2c-.012.544,0,1.09,0,1.635a1.957,1.957,0,0,0,2.211,2.2c1.282,0,2.563,0,3.844,0,3.534,0,8.969,0,12.5,0,1.545,0,2.26-.724,2.262-2.278C414.278,563.633,414.28,563.161,414.277,562.691Zm-1.328,1.566c-.008.614-.181.8-.794.8-1.341.007-4.582,0-5.923,0H395.756c-.846,0-.971-.127-.972-.977,0-.471,0-.943,0-1.414.007-.621.173-.789.793-.789q3.669,0,7.338,0h9.15c.739,0,.88.142.884.878C412.951,563.255,412.954,563.755,412.949,564.256Z" transform="translate(-388.879 -532.434)" fill="#306c3a"/>
        <path id="Path_24173" data-name="Path 24173" d="M425.655,576.441c0-.736-.145-.878-.884-.878h-8.2c-2.446,0-5.842,0-8.288,0-.62,0-.786.169-.793.789-.005.471,0,.943,0,1.415,0,.85.125.977.972.977h11.426c1.341,0,3.632,0,4.973,0,.613,0,.786-.184.794-.8C425.659,577.443,425.657,576.942,425.655,576.441Zm-14.112,1.5a.661.661,0,1,1,.667-.67A.664.664,0,0,1,411.543,577.946Zm2.5,0a.661.661,0,1,1,.644-.688A.663.663,0,0,1,414.046,577.945Zm2.449,0a.661.661,0,0,1,.017-1.322.661.661,0,1,1-.017,1.322Zm2.538,0a.66.66,0,1,1-.025-1.319.66.66,0,0,1,.025,1.319Zm2.446,0a.66.66,0,1,1,.01-1.319.66.66,0,0,1-.01,1.319Z" transform="translate(-401.579 -546.121)" fill="#8fb641"/>
        <path id="Path_24174" data-name="Path 24174" d="M461.3,403.248a5.891,5.891,0,1,1-9.7-4.33,1.994,1.994,0,0,0,.474-.625,3.652,3.652,0,0,1,6.671-.013,2.284,2.284,0,0,0,.514.665A5.837,5.837,0,0,1,461.3,403.248Zm-5.884,4.449a15.057,15.057,0,0,0,2-.657c.811-.392,1.688-1.038,1.672-1.905s-.9-1.477-1.7-1.893a1.615,1.615,0,0,0-.742-.069,7.708,7.708,0,0,1-2.143.045,1.569,1.569,0,0,0-1.612.382,11.272,11.272,0,0,0-.975,1.053.711.711,0,0,0-.019.982A4.651,4.651,0,0,0,455.412,407.7Zm.012-9.854a1.905,1.905,0,1,0,1.891,1.919A1.911,1.911,0,0,0,455.424,397.843ZM451.954,401l-.6,1.393.12.07.905-.669Zm7.39,1.465.124-.074-.619-1.376-.412.8Z" transform="translate(-440.42 -385.376)" fill="#50853b"/>
        <path id="Path_24175" data-name="Path 24175" d="M478.256,272.493a.673.673,0,0,1-.747.686q-1.651.013-3.3,0a.669.669,0,0,1-.726-.664.658.658,0,0,1,.727-.654c.557-.011,1.116,0,1.674,0s1.087-.007,1.629,0C477.967,271.867,478.243,272.109,478.256,272.493Z" transform="translate(-460.88 -269.481)" fill="#306c3a"/>
      </g>
    </g>
  </g>
</svg>
