<svg xmlns="http://www.w3.org/2000/svg" xmlns:xlink="http://www.w3.org/1999/xlink" width="30" height="30" viewBox="0 0 30 30">
  <defs>
    <clipPath id="clip-path">
      <rect id="Rectangle_7035" data-name="Rectangle 7035" width="30" height="30" transform="translate(364 837)" fill="#fff" stroke="#707070" stroke-width="1" opacity="0.71"/>
    </clipPath>
  </defs>
  <g id="Mask_Group_201" data-name="Mask Group 201" transform="translate(-364 -837)" clip-path="url(#clip-path)">
    <g id="Group_48744" data-name="Group 48744" transform="translate(367.002 840.809)">
      <g id="motors" transform="translate(0 0)">
        <path id="Path_23986" data-name="Path 23986" d="M21,9.04,19.748,3.123A2.728,2.728,0,0,0,17.362.492H5.245A2.729,2.729,0,0,0,2.861,3.123L1.605,9.04" transform="translate(0.818 -0.492)" fill="#8fb641" stroke="#316c3b" stroke-linecap="round" stroke-linejoin="round" stroke-width="1.36" fill-rule="evenodd"/>
        <path id="Path_23987" data-name="Path 23987" d="M5.99,10.323v1.91A2.367,2.367,0,0,1,3.625,14.6h-.12A2.365,2.365,0,0,1,1.14,12.233v-1.91h0m21.014,0v1.91A2.367,2.367,0,0,1,19.789,14.6h-.118a2.364,2.364,0,0,1-2.365-2.365v-1.91h0" transform="translate(0.474 6.775)" fill="none" stroke="#316c3b" stroke-linecap="round" stroke-linejoin="round" stroke-width="1.36" fill-rule="evenodd"/>
        <path id="Path_23988" data-name="Path 23988" d="M20.908,13.957H3.76A3.547,3.547,0,0,1,.212,10.409V9.035h0a2.632,2.632,0,0,1,.71-1.812L2.635,5.407h19.4l1.715,1.814a2.648,2.648,0,0,1,.71,1.814v1.374A3.547,3.547,0,0,1,20.908,13.957Z" transform="translate(-0.212 3.141)" fill="none" stroke="#316c3b" stroke-linecap="round" stroke-linejoin="round" stroke-width="1.36" fill-rule="evenodd"/>
        <path id="Path_23989" data-name="Path 23989" d="M12.2,6.318A2.228,2.228,0,0,0,10.071,4,2.23,2.23,0,0,0,7.944,6.318" transform="translate(5.503 2.101)" fill="none" stroke="#316c3b" stroke-linecap="round" stroke-linejoin="round" stroke-width="0.952" fill-rule="evenodd"/>
        <path id="Path_23990" data-name="Path 23990" d="M5.333,8.024,12.29,8" transform="translate(3.573 5.058)" fill="none" stroke="#316c3b" stroke-linecap="round" stroke-width="1.36" fill-rule="evenodd"/>
      </g>
      <circle id="Ellipse_497" data-name="Ellipse 497" cx="1.344" cy="1.344" r="1.344" transform="translate(3.462 11.844)" fill="#8fb641"/>
      <circle id="Ellipse_498" data-name="Ellipse 498" cx="1.344" cy="1.344" r="1.344" transform="translate(18.241 11.844)" fill="#8fb641"/>
    </g>
  </g>
</svg>
