<svg xmlns="http://www.w3.org/2000/svg" xmlns:xlink="http://www.w3.org/1999/xlink" width="30" height="30" viewBox="0 0 30 30">
  <defs>
    <clipPath id="clip-path">
      <rect id="Rectangle_7037" data-name="Rectangle 7037" width="30" height="30" transform="translate(1261 835)" fill="#fff" stroke="#707070" stroke-width="1" opacity="0.71"/>
    </clipPath>
  </defs>
  <g id="Mask_Group_202" data-name="Mask Group 202" transform="translate(-1261 -835)" clip-path="url(#clip-path)">
    <g id="Group_48818" data-name="Group 48818" transform="translate(96.314 18.113)">
      <g id="Group_48817" data-name="Group 48817" transform="translate(1166.999 821)">
        <path id="Path_24057" data-name="Path 24057" d="M759.657,539.359c.123.036.246.07.368.109a2.337,2.337,0,0,1,1.63,2.2c.01,1.008,0,2.017.008,3.025a.364.364,0,0,0,.115.26,2.285,2.285,0,0,1,.99,2.469,2.42,2.42,0,0,1-1.871,1.941,6.887,6.887,0,0,1-.8.116v.237q0,1.2,0,2.391c0,.559-.31.919-.787.915a.8.8,0,0,1-.775-.9c0-1.025,0-2.049,0-3.074a.314.314,0,0,0-.185-.324q-2.779-1.547-5.549-3.108a.959.959,0,0,0-1.032,0q-2.757,1.559-5.527,3.1a.351.351,0,0,0-.208.359q.013,1.586,0,3.172a.778.778,0,0,1-1.536.184,1.279,1.279,0,0,1-.023-.291q0-1.208,0-2.415v-.275a2.627,2.627,0,0,1-1.848-.611,2.419,2.419,0,0,1,.37-4q4.026-2.259,8.058-4.512a2.365,2.365,0,0,1,2.458,0q1.6.891,3.19,1.785c.077.042.155.081.285.151A6.247,6.247,0,0,1,757,541.4a2.312,2.312,0,0,1,1.868-2,.632.632,0,0,0,.107-.045Zm-16.348,7.5a1,1,0,0,0,.759,1,1.1,1.1,0,0,0,.813-.166l6.187-3.466a2.353,2.353,0,0,1,2.416-.014c.477.262.949.532,1.424.8q2.436,1.362,4.87,2.724a.972.972,0,0,0,1.37-.355c.266-.487.105-.931-.456-1.245q-3.943-2.21-7.887-4.42a.937.937,0,0,0-1.009-.014c-1.251.711-2.508,1.407-3.763,2.109q-2.116,1.186-4.232,2.369A.824.824,0,0,0,743.309,546.86ZM760.091,544c0-.826.017-1.612-.006-2.4a.758.758,0,0,0-.788-.684.767.767,0,0,0-.756.72c-.018.455-.009.911,0,1.366a.259.259,0,0,0,.11.185C759.114,543.461,759.583,543.719,760.091,544Z" transform="translate(-739.795 -539.359)" fill="#316c3b"/>
        <path id="Path_24058" data-name="Path 24058" d="M739.89,555.476c.039-.13.075-.262.118-.39a2.34,2.34,0,0,1,2.191-1.608c.822-.01,1.643,0,2.465,0h17.782a2.33,2.33,0,0,1,2.354,1.777,2.815,2.815,0,0,1,.074.651q.008,2.647,0,5.294a2.338,2.338,0,0,1-2.429,2.428q-10.063,0-20.124,0a2.336,2.336,0,0,1-2.391-1.918.409.409,0,0,0-.041-.083Zm12.5-.439H742.367a.8.8,0,0,0-.915.909q0,2.6,0,5.2a.806.806,0,0,0,.928.921h20.006a.806.806,0,0,0,.928-.922V555.97c0-.644-.292-.933-.941-.933Z" transform="translate(-739.89 -538.64)" fill="#316c3b"/>
        <path id="Path_24059" data-name="Path 24059" d="M751.946,546.789a3.122,3.122,0,1,1-3.141,3.1A3.132,3.132,0,0,1,751.946,546.789Zm1.543,3.11a1.561,1.561,0,1,0-1.555,1.574A1.565,1.565,0,0,0,753.489,549.9Z" transform="translate(-739.436 -538.98)" fill="#316c3b"/>
        <path id="Path_24060" data-name="Path 24060" d="M758.225,556.942v.31c.479,0,.949,0,1.418,0a1.256,1.256,0,0,1,.25.014.618.618,0,0,1-.113,1.222c-.446.007-.891,0-1.337,0h-.218v.31h.183c.446,0,.891,0,1.337,0a.618.618,0,1,1,.01,1.236c-.522.006-1.045.009-1.569,0a1.229,1.229,0,0,1-1.208-1.217q-.012-.948,0-1.9a1.228,1.228,0,0,1,1.207-1.218c.522-.009,1.045-.006,1.568,0a.619.619,0,1,1-.008,1.237C759.244,556.946,758.742,556.942,758.225,556.942Z" transform="translate(-739.471 -537.962)" fill="#8fb641"/>
        <path id="Path_24061" data-name="Path 24061" d="M749.488,558.811h-.929c0,.185,0,.37,0,.554a.622.622,0,1,1-1.239.008c0-.8,0-1.6,0-2.4a1.237,1.237,0,0,1,1.273-1.271c.3,0,.606,0,.909,0a1.23,1.23,0,0,1,1.223,1.22c.008.825.005,1.651,0,2.477a.62.62,0,1,1-1.238-.008C749.486,559.207,749.488,559.02,749.488,558.811Zm0-1.852h-.912v.589h.912Z" transform="translate(-738.766 -537.961)" fill="#8fb641"/>
        <path id="Path_24062" data-name="Path 24062" d="M743.737,556.943v.31h.855a1.237,1.237,0,0,1,1.3,1.3,2.4,2.4,0,0,1-.052.595,1.213,1.213,0,0,1-1.157.893c-.522.008-1.045.007-1.568,0a.618.618,0,1,1,.009-1.236c.5,0,1,0,1.518,0v-.31c-.236,0-.468-.017-.7,0a1.3,1.3,0,0,1-1.466-1.476,1.393,1.393,0,0,1,.367-.948,1.2,1.2,0,0,1,.868-.367q.765,0,1.529,0a.62.62,0,1,1-.008,1.238C744.742,556.945,744.247,556.943,743.737,556.943Z" transform="translate(-738.412 -537.962)" fill="#8fb641"/>
        <path id="Path_24063" data-name="Path 24063" d="M753.387,558.8c.528,0,1.036-.006,1.543,0a.614.614,0,0,1,.584.833.584.584,0,0,1-.562.4c-.541.008-1.084.013-1.625,0a1.22,1.22,0,0,1-1.176-1.185c-.013-.844-.008-1.689,0-2.533a.618.618,0,1,1,1.236.016C753.39,557.148,753.387,557.96,753.387,558.8Z" transform="translate(-739.118 -537.962)" fill="#8fb641"/>
      </g>
    </g>
  </g>
</svg>
