<svg xmlns="http://www.w3.org/2000/svg" xmlns:xlink="http://www.w3.org/1999/xlink" width="30" height="30" viewBox="0 0 30 30">
  <defs>
    <clipPath id="clip-path">
      <rect id="Rectangle_7036" data-name="Rectangle 7036" width="30" height="30" transform="translate(811 833)" fill="#fff" stroke="#707070" stroke-width="1" opacity="0.71"/>
    </clipPath>
  </defs>
  <g id="Mask_Group_200" data-name="Mask Group 200" transform="translate(-811 -833)" clip-path="url(#clip-path)">
    <g id="Group_48816" data-name="Group 48816" transform="translate(445 78.006)">
      <path id="Path_24055" data-name="Path 24055" d="M-16885.295-11808.727l-.26-1.569.26-.959.262-.7v-.741a3.7,3.7,0,0,1,0-.741,10.44,10.44,0,0,1,.307-1.09s-.174-.567,0-.785a2.081,2.081,0,0,0,0-1.265c-.088-.131.262-.741.393-.959a6.464,6.464,0,0,1,.7-.828,3.051,3.051,0,0,1,.828-.437,10.456,10.456,0,0,1,1.178,0l.828.437.742.522a7.054,7.054,0,0,1,.609.785c.043.131-.088,1.265,0,1.4s.133,1.091.219,1.134a4.144,4.144,0,0,1,.436.61v1.657s.348,1.438.436,1.656a3.9,3.9,0,0,1,0,1.875c-.217.306-.611,1.091-1.09,1.353s-1.35.915-1.656,1.046a10.139,10.139,0,0,1-2.006,0,6.782,6.782,0,0,1-1.221-.653,8.4,8.4,0,0,0-.961-.873Z" transform="translate(17253 12583)" fill="#8fb641"/>
      <path id="Path_24056" data-name="Path 24056" d="M-16885.295-11808.727l-.26-1.569.26-.959.262-.7v-.741a3.7,3.7,0,0,1,0-.741,10.44,10.44,0,0,1,.307-1.09s-.174-.567,0-.785a2.081,2.081,0,0,0,0-1.265c-.088-.131.262-.741.393-.959a6.464,6.464,0,0,1,.7-.828,3.051,3.051,0,0,1,.828-.437,10.456,10.456,0,0,1,1.178,0l.828.437.742.522a7.054,7.054,0,0,1,.609.785c.043.131-.088,1.265,0,1.4s.133,1.091.219,1.134a4.144,4.144,0,0,1,.436.61v1.657s.348,1.438.436,1.656a3.9,3.9,0,0,1,0,1.875c-.217.306-.611,1.091-1.09,1.353s-1.35.915-1.656,1.046a10.139,10.139,0,0,1-2.006,0,6.782,6.782,0,0,1-1.221-.653,8.4,8.4,0,0,0-.961-.873Z" transform="translate(17272 12583)" fill="#8fb641"/>
      <g id="Group_48815" data-name="Group 48815" transform="translate(-303.631 219.032)">
        <path id="Path_24050" data-name="Path 24050" d="M670.633,554.63v-.746a4.3,4.3,0,0,1,.738-1.935.287.287,0,0,0,0-.221,2.947,2.947,0,0,1,.181-2.493,1.717,1.717,0,0,0,.181-1.206,2.869,2.869,0,0,1,3.579-3.1,10.524,10.524,0,0,1,1.191.471v-3.687h-.259c-.452,0-.54-.092-.541-.546q0-.639,0-1.278c0-.467.091-.558.561-.558h4.752c0-.545,0-1.057,0-1.57,0-.358.118-.473.482-.475q.958,0,1.916,0c.432,0,.528.1.528.533,0,.494,0,.989,0,1.491h.751c0-.533,0-1.045,0-1.558,0-.344.125-.463.468-.465.541,0,1.082,0,1.623,0,.837,0,.837,0,.837.834v1.211h2.032c.94,0,1.88,0,2.82,0,.354,0,.458.113.46.466,0,.506,0,1.012,0,1.517,0,.272-.12.386-.39.4-.174.007-.348,0-.531,0v3.749c.076-.041.13-.065.179-.1a2.967,2.967,0,0,1,2.255-.47,2.817,2.817,0,0,1,2.259,3.553.524.524,0,0,0,.106.484,3.123,3.123,0,0,1,.367,2.7.521.521,0,0,0,.075.508,3.587,3.587,0,0,1,.626,2.132,3.884,3.884,0,0,1-3.081,3.661c-.189.04-.381.07-.575.1v4.1H697.4c.362,0,.473.113.476.479,0,.47-.006.94,0,1.41a.508.508,0,0,1-.26.509H670.633v-2.182a.545.545,0,0,1,.5-.22c.955.008,1.912,0,2.868,0h.292v-4.1c-.079-.017-.147-.035-.216-.045a3.849,3.849,0,0,1-2.962-2A8.721,8.721,0,0,1,670.633,554.63Zm17.505,5.719c1.027,0,2.02,0,3.012,0,.2,0,.168-.136.168-.256,0-.914.007-1.827-.006-2.741a.553.553,0,0,0-.163-.356,3.874,3.874,0,0,1-.922-1.256,3.742,3.742,0,0,1,.316-3.7.422.422,0,0,0,.066-.307,3.238,3.238,0,0,1,.391-2.9.5.5,0,0,0,.057-.361,2.785,2.785,0,0,1,.178-2.066.916.916,0,0,0,.081-.38c.005-1.34,0-2.679,0-4.018,0-.094-.008-.188-.013-.284H677.211c-.006.073-.015.125-.015.177,0,1.4,0,2.8,0,4.2a.888.888,0,0,0,.1.35,2.623,2.623,0,0,1,.177,1.912.611.611,0,0,0,.086.561,2.816,2.816,0,0,1,.462,2.229,1.384,1.384,0,0,0,.222,1.364.457.457,0,0,1,.053.121,3.735,3.735,0,0,1-.956,4.364.493.493,0,0,0-.142.314c-.011.922,0,1.844-.01,2.767,0,.2.053.26.254.258.958-.009,1.916,0,2.873-.005.076,0,.151-.015.246-.025v-.339q0-2.98,0-5.96c0-.453.074-.527.528-.527h6.493c.471,0,.552.083.552.56v6.291Zm-13.167-5.7c.243-.232.439-.421.637-.608s.394-.21.534-.049a.35.35,0,0,1-.045.52,7.008,7.008,0,0,1-.633.645,1.251,1.251,0,0,0-.488,1.227,7.724,7.724,0,0,1,.007.952,3.347,3.347,0,0,0,2.508-1.555,3.023,3.023,0,0,0-.191-3.484.521.521,0,0,1-.133-.578,2.488,2.488,0,0,0-.353-2.67.575.575,0,0,1-.085-.589,2.509,2.509,0,0,0,.16-.905,2.193,2.193,0,0,0-2.222-2.035,2.161,2.161,0,0,0-2.131,2.933.622.622,0,0,1-.141.676,2.411,2.411,0,0,0-.352,2.434.732.732,0,0,1-.107.8,2.9,2.9,0,0,0-.322,3.11,3.269,3.269,0,0,0,2.685,1.87c0-.515.009-1.011-.006-1.505a.591.591,0,0,0-.141-.346c-.3-.335-.626-.653-.939-.979a.35.35,0,0,1-.074-.478.333.333,0,0,1,.548-.006c.189.188.364.391.545.588l.065-.05c0-.415,0-.831,0-1.246a.33.33,0,0,1,.658-.04,1.944,1.944,0,0,1,.015.264C674.972,553.9,674.971,554.251,674.971,554.652Zm19.243,2.685a3.313,3.313,0,0,0,2.539-1.579,2.982,2.982,0,0,0-.142-3.35.792.792,0,0,1-.14-.868,2.951,2.951,0,0,0,.15-1.088,2.165,2.165,0,0,0-.548-1.381.553.553,0,0,1-.088-.636,1.744,1.744,0,0,0,.131-.485,2.187,2.187,0,0,0-2.238-2.429,2.158,2.158,0,0,0-2.1,2.937.643.643,0,0,1-.158.7,2.414,2.414,0,0,0-.333,2.413.71.71,0,0,1-.1.774,2.911,2.911,0,0,0-.34,3.109,3.285,3.285,0,0,0,2.682,1.893c0-.5.011-.982-.007-1.458a.631.631,0,0,0-.151-.367c-.294-.331-.61-.642-.916-.963-.209-.218-.233-.429-.07-.576s.341-.118.552.1c.18.186.352.38.528.571l.071-.047v-.259c0-.31-.009-.621.011-.93a.581.581,0,0,1,.139-.35.324.324,0,0,1,.309-.045.5.5,0,0,1,.211.325c.025.41.01.821.01,1.261.223-.213.415-.394.6-.577a.34.34,0,0,1,.475-.072.344.344,0,0,1,0,.552c-.309.33-.63.649-.94.978a.435.435,0,0,0-.14.239C694.208,556.257,694.214,556.787,694.214,557.337Zm2.963,5.493H671.334v.992h25.843Zm-20.692-.722h15.736v-1.064H676.485Zm4.775-7.92a.692.692,0,0,0-.02.107q0,2.926-.005,5.854c0,.175.077.2.225.2.8,0,1.6,0,2.395,0a.968.968,0,0,0,.135-.019v-6.141Zm3.441,0v6.143h2.74v-6.143Zm7.534-14.157H676.4v.984h15.84Zm-17.221,18.034v4.045h.747a.311.311,0,0,0,.021-.071c0-.416,0-.832.005-1.248,0-.322.107-.424.43-.439l.282-.014v-2.695Zm17-.421v2.713c.2,0,.375-.006.551,0a.335.335,0,0,1,.345.335,3.523,3.523,0,0,1,.007.371c0,.351,0,.7,0,1.046h.586v-4.045Zm-8.775-19.656h-1.529v1.326h1.529Zm3.682,0h-1.534v1.317h1.534Z" fill="#306c3a" stroke="#306c3a" stroke-width="0.25"/>
        <path id="Path_24051" data-name="Path 24051" d="M685.309,545.46c0-.47,0-.939,0-1.409,0-.317.116-.432.434-.434q.944-.006,1.887,0c.323,0,.445.125.447.458q0,1.381,0,2.763c0,.336-.117.453-.444.455q-.944.006-1.886,0c-.338,0-.436-.1-.439-.451C685.307,546.381,685.309,545.92,685.309,545.46Zm.7-1.144v2.279h1.378v-2.279Z" fill="#306c3a" stroke="#306c3a" stroke-width="0.25"/>
        <path id="Path_24052" data-name="Path 24052" d="M688.08,550.383c0,.461,0,.921,0,1.382,0,.344-.123.463-.467.465q-.917,0-1.833,0c-.354,0-.468-.109-.469-.455q0-1.4,0-2.79c0-.327.105-.43.431-.432.637,0,1.275,0,1.913,0,.3,0,.418.119.423.421C688.085,549.444,688.08,549.913,688.08,550.383Zm-.707,1.148V549.25H686v2.281Z" fill="#306c3a" stroke="#306c3a" stroke-width="0.25"/>
        <path id="Path_24053" data-name="Path 24053" d="M683.266,550.371c0,.469,0,.939,0,1.408,0,.336-.116.449-.447.451q-.93.006-1.859,0c-.334,0-.458-.116-.46-.443q-.009-1.395,0-2.789c0-.334.118-.443.452-.445q.93,0,1.86,0c.355,0,.452.1.455.463C683.269,549.468,683.266,549.919,683.266,550.371Zm-.69,1.162v-2.281h-1.384v2.281Z" fill="#306c3a" stroke="#306c3a" stroke-width="0.25"/>
        <path id="Path_24054" data-name="Path 24054" d="M683.266,545.466c0,.46,0,.921,0,1.381,0,.341-.108.445-.446.446q-.942,0-1.886,0c-.314,0-.432-.115-.434-.435q-.009-1.395,0-2.789c0-.334.123-.45.451-.452q.93-.006,1.86,0c.345,0,.453.112.456.468C683.269,544.545,683.266,545.005,683.266,545.466Zm-2.079,1.125h1.387v-2.267h-1.387Z" fill="#306c3a" stroke="#306c3a" stroke-width="0.25"/>
      </g>
    </g>
  </g>
</svg>
