<svg xmlns="http://www.w3.org/2000/svg" xmlns:xlink="http://www.w3.org/1999/xlink" width="108" height="108" viewBox="0 0 108 108">
  <defs>
    <clipPath id="clip-path">
      <rect id="Rectangle_7039" data-name="Rectangle 7039" width="108" height="108" transform="translate(1146 350)" fill="#fff" stroke="#707070" stroke-width="1" opacity="0.48"/>
    </clipPath>
  </defs>
  <g id="Mask_Group_204" data-name="Mask Group 204" transform="translate(-1146 -350)" clip-path="url(#clip-path)">
    <g id="group" transform="translate(1151 362.537)">
      <path id="Path_24152" data-name="Path 24152" d="M636.6,545.142a10.113,10.113,0,0,1-2.072,4.5,7.08,7.08,0,0,1-4.929,2.738c-4.572.143-9.168.048-13.526.048.048-2.81.143-5.667.143-8.549.024-7.025,0-14.049,0-21.1a23.145,23.145,0,0,0-1.048-7.667c-.048-.143-.024-.309-.072-.572,4.048.238,8.12-.572,12,.857a13.741,13.741,0,0,1,9.311,11.263,3.2,3.2,0,0,0,.167.428C636.6,533.116,636.6,539.117,636.6,545.142Z" transform="translate(-539.222 -470.036)" fill="#8fb641"/>
      <path id="Path_24153" data-name="Path 24153" d="M428.512,529.3H409.224c-2.334,0-3.358-1.024-3.358-3.358,0-9.215-.024-18.431,0-27.647a13.972,13.972,0,0,1,11.025-13.954,15.016,15.016,0,0,1,3.1-.333c5.667-.024,11.335-.048,17,0a13.924,13.924,0,0,1,13.788,10.978,14.686,14.686,0,0,1,.333,3.381q.036,13.823.024,27.647c0,2.214-1.048,3.262-3.262,3.262C441.442,529.3,434.965,529.3,428.512,529.3Z" transform="translate(-379.804 -446.769)" fill="#8fb641"/>
      <path id="Path_24154" data-name="Path 24154" d="M446.929,327.7A16.9,16.9,0,1,1,430,344.44,16.942,16.942,0,0,1,446.929,327.7Z" transform="translate(-398.198 -327.7)" fill="#8fb641"/>
      <path id="Path_24155" data-name="Path 24155" d="M317.088,552.68c-3.048,0-6.215.024-9.382-.024a22.383,22.383,0,0,1-4.905-.309,8.248,8.248,0,0,1-6.334-8.406c-.024-4.906,0-9.811,0-14.74.024-8.239,5.906-14.312,14.145-14.5,2.429-.071,4.858,0,7.406,0a13.713,13.713,0,0,0-.548,2.024,45.538,45.538,0,0,0-.6,5.358c-.071,8.311-.047,16.6-.024,24.908C316.873,548.846,317.016,550.7,317.088,552.68Z" transform="translate(-296.456 -470.145)" fill="#8fb641"/>
      <path id="Path_24156" data-name="Path 24156" d="M348.564,406.465a12.633,12.633,0,1,1-12.5-12.669A12.693,12.693,0,0,1,348.564,406.465Z" transform="translate(-316.907 -378.056)" fill="#8fb641"/>
      <path id="Path_24157" data-name="Path 24157" d="M597.939,406.4a12.621,12.621,0,1,1-12.645-12.6A12.693,12.693,0,0,1,597.939,406.4Z" transform="translate(-506.917 -378.06)" fill="#8fb641"/>
    </g>
  </g>
</svg>
