<svg xmlns="http://www.w3.org/2000/svg" xmlns:xlink="http://www.w3.org/1999/xlink" width="108" height="108" viewBox="0 0 108 108">
  <defs>
    <clipPath id="clip-path">
      <rect id="Rectangle_7038" data-name="Rectangle 7038" width="108" height="108" transform="translate(630 345)" fill="#fff" stroke="#707070" stroke-width="1" opacity="0.48"/>
    </clipPath>
  </defs>
  <g id="Mask_Group_203" data-name="Mask Group 203" transform="translate(-630 -345)" clip-path="url(#clip-path)">
    <g id="user_2_" data-name="user (2)" transform="translate(646 352.76)">
      <path id="Path_24158" data-name="Path 24158" d="M344.458,541.824c-1.039-.226-2.123-.384-3.139-.677A14.431,14.431,0,0,1,330.3,527.3a49.365,49.365,0,0,1,3.184-20.844c1.761-4.313,4.291-8.039,8.559-10.32a16.791,16.791,0,0,1,8.4-2.01,6.582,6.582,0,0,1,2.755.948c1.378.745,2.642,1.671,3.975,2.484q11.585,7.148,23.17-.022c1.061-.655,2.168-1.31,3.161-2.055a7.743,7.743,0,0,1,6.075-1.242c5.984.881,10.207,4.155,13.075,9.395a38.611,38.611,0,0,1,4.2,14.973,74.492,74.492,0,0,1,.361,8.085c-.09,8.062-5.623,14.047-13.64,14.927a5.626,5.626,0,0,0-.587.158Q368.7,541.847,344.458,541.824Z" transform="translate(-330.24 -449.504)" fill="#8fb641"/>
      <path id="Path_24159" data-name="Path 24159" d="M444.011,318.8a22.255,22.255,0,1,1-22.357-22.2A22.3,22.3,0,0,1,444.011,318.8Z" transform="translate(-383.859 -296.597)" fill="#8fb641"/>
    </g>
  </g>
</svg>
