<svg xmlns="http://www.w3.org/2000/svg" xmlns:xlink="http://www.w3.org/1999/xlink" width="31" height="31" viewBox="0 0 31 31">
  <defs>
    <clipPath id="clip-path">
      <rect id="Rectangle_7061" data-name="Rectangle 7061" width="31" height="31" transform="translate(1207 46)" fill="#fff" stroke="#707070" stroke-width="1" opacity="0.62"/>
    </clipPath>
  </defs>
  <g id="Mask_Group_214" data-name="Mask Group 214" transform="translate(-1207 -46)" clip-path="url(#clip-path)">
    <g id="Group_48805" data-name="Group 48805" transform="translate(916 -361.553)">
      <path id="Path_24038" data-name="Path 24038" d="M296,424.969v-10.7a.451.451,0,0,0,.031-.079,1.917,1.917,0,0,1,1.976-1.632q7.044,0,14.088,0a1.926,1.926,0,0,1,2.006,1.994q.008,5.072-.007,10.144a2.16,2.16,0,0,1-.2.886,1.874,1.874,0,0,1-1.831,1.1q-3.506,0-7.012,0a.945.945,0,0,0-.723.3q-1.622,1.635-3.259,3.254a1.18,1.18,0,0,1-.319.246.642.642,0,0,1-.892-.65c0-.97,0-1.94,0-2.91v-.234c-.639,0-1.246,0-1.853,0a1.846,1.846,0,0,1-1.62-.8A5.085,5.085,0,0,1,296,424.969Zm9.049-5.994h-5.658c-.079,0-.158,0-.236,0a.646.646,0,0,0-.577.57.627.627,0,0,0,.448.671,1.228,1.228,0,0,0,.338.037q5.69,0,11.38,0a1.724,1.724,0,0,0,.214-.006.638.638,0,0,0,.513-.893.667.667,0,0,0-.679-.387Q307.92,418.979,305.049,418.976Zm-1.283-1.284q2.239,0,4.478,0a.645.645,0,1,0,.008-1.283h-8.871a1.91,1.91,0,0,0-.214,0,.622.622,0,0,0-.548.415.64.64,0,0,0,.648.864C300.766,417.693,302.266,417.691,303.766,417.691Zm-1.288,5.137q1.6,0,3.192,0a.654.654,0,0,0,.664-.408.643.643,0,0,0-.654-.875q-2.613,0-5.227,0c-.407,0-.814,0-1.221,0a.621.621,0,0,0-.606.4.64.64,0,0,0,.638.885C300.336,422.832,301.407,422.829,302.478,422.829Z" transform="translate(0 0)" fill="#636262"/>
      <path id="Path_24039" data-name="Path 24039" d="M457.383,472.785a5.075,5.075,0,0,1-.389.912,1.869,1.869,0,0,1-1.645.794c-.6,0-1.2,0-1.826,0v.241c0,.97,0,1.941,0,2.911a.638.638,0,0,1-.872.654,1.131,1.131,0,0,1-.339-.253q-1.708-1.7-3.407-3.41a.454.454,0,0,0-.356-.146c-1.651,0-3.3,0-4.954,0h-.274c.067-.074.1-.121.147-.161.35-.326.7-.647,1.049-.979a.47.47,0,0,1,.358-.142q3.335.007,6.669,0a3.205,3.205,0,0,0,3.192-2.527,3.767,3.767,0,0,0,.076-.827q.008-4.6,0-9.2V460.4a2.034,2.034,0,0,1,2.538,1.6.432.432,0,0,0,.031.079Z" transform="translate(-139.421 -45.247)" fill="#636262"/>
    </g>
  </g>
</svg>
