<svg xmlns="http://www.w3.org/2000/svg" xmlns:xlink="http://www.w3.org/1999/xlink" width="31" height="31" viewBox="0 0 31 31">
  <defs>
    <clipPath id="clip-path">
      <rect id="Rectangle_7063" data-name="Rectangle 7063" width="31" height="31" transform="translate(1061 46)" fill="#fff" stroke="#707070" stroke-width="1" opacity="0.62"/>
    </clipPath>
  </defs>
  <g id="Mask_Group_213" data-name="Mask Group 213" transform="translate(-1061 -46)" clip-path="url(#clip-path)">
    <g id="ada" transform="translate(1065 52)">
      <path id="Path_23992" data-name="Path 23992" d="M348.13,444.852c0-.084-.006-.168-.013-.252H325.4v12.7a1.563,1.563,0,0,0,1.688,1.688h19.341a1.563,1.563,0,0,0,1.695-1.682C348.137,454.173,348.13,448,348.13,444.852Zm-2.477,11.385a.616.616,0,0,1-.44.181h-17.09a.628.628,0,0,1-.627-.627.618.618,0,0,1,.621-.621h17.09a.628.628,0,0,1,.627.627A.644.644,0,0,1,345.653,456.237Zm.058-2.691a.616.616,0,0,1-.44.181h-17.09a.628.628,0,0,1-.627-.627.618.618,0,0,1,.621-.621h17.09a.627.627,0,0,1,.446,1.067Zm0-2.691a.616.616,0,0,1-.44.181h-17.09a.628.628,0,0,1-.627-.627.621.621,0,0,1,.181-.44.632.632,0,0,1,.44-.181h17.09a.627.627,0,0,1,.446,1.067Zm0-2.691a.616.616,0,0,1-.44.181h-17.09a.628.628,0,0,1-.627-.627.618.618,0,0,1,.621-.621h17.09a.628.628,0,0,1,.627.627A.62.62,0,0,1,345.711,448.164Z" transform="translate(-325.335 -440.46)" fill="#636262"/>
      <path id="Path_23993" data-name="Path 23993" d="M347.252,382.191a1.563,1.563,0,0,0-1.675-1.591H326.094a1.473,1.473,0,0,0-1.591,1.255,4.8,4.8,0,0,0-.032,1.824h22.75c.026-.3.065-.582.071-.86C347.291,382.612,347.272,382.4,347.252,382.191Zm-20.182.983a.507.507,0,0,1-.524-.511.525.525,0,0,1,.511-.511.511.511,0,1,1,.013,1.022Zm2.057,0a.511.511,0,1,1-.013-1.022.515.515,0,0,1,.517.517A.493.493,0,0,1,329.127,383.174Zm2.057,0a.505.505,0,0,1-.5-.5.512.512,0,0,1,.524-.517.511.511,0,1,1-.019,1.022Z" transform="translate(-324.399 -380.6)" fill="#636262"/>
    </g>
  </g>
</svg>
