<svg xmlns="http://www.w3.org/2000/svg" xmlns:xlink="http://www.w3.org/1999/xlink" width="31" height="31" viewBox="0 0 31 31">
  <defs>
    <clipPath id="clip-path">
      <rect id="Rectangle_7058" data-name="Rectangle 7058" width="31" height="31" transform="translate(506 46)" fill="#fff" stroke="#707070" stroke-width="1" opacity="0.62"/>
    </clipPath>
  </defs>
  <g id="Mask_Group_210" data-name="Mask Group 210" transform="translate(-506 -46)" clip-path="url(#clip-path)">
    <g id="notification-02" transform="translate(510 49)">
      <path id="Path_23981" data-name="Path 23981" d="M214.218,359.7a4.375,4.375,0,0,1-8.518,0Z" transform="translate(-198.393 -337.72)" fill="#636262"/>
      <g id="Group_48736" data-name="Group 48736" transform="translate(0 0)">
        <path id="Path_23982" data-name="Path 23982" d="M152.8,149.844v.01a1.64,1.64,0,0,1-.144.683,2.23,2.23,0,0,1-.3.519,1.948,1.948,0,0,1-.5.423,2.272,2.272,0,0,1-1.077.327c-3.182.01-6.355.019-9.538.019s-6.355-.01-9.538-.019a2.272,2.272,0,0,1-1.077-.327,1.8,1.8,0,0,1-.5-.423,2.258,2.258,0,0,1-.288-.519,1.888,1.888,0,0,1-.144-.683v-.106a2.078,2.078,0,0,1,.24-.846c0-.01.01-.01.01-.019a2.062,2.062,0,0,1,.385-.49,10.841,10.841,0,0,0,.981-1.019c.01-.01.019-.019.019-.029a7.26,7.26,0,0,0,1.01-1.529l.029-.058c.038-.087.077-.173.115-.25a4.684,4.684,0,0,0,.2-.51l.058-.173c0-.01.01-.019.01-.038.058-.192.115-.394.163-.6a12.189,12.189,0,0,0,.26-2.211c.048-.981.029-1.952.01-2.932a8.011,8.011,0,0,1,5.461-7.548,7.826,7.826,0,0,1,2.586-.4,7.966,7.966,0,0,1,8.038,7.951c-.029.981-.038,1.952.01,2.932a12.182,12.182,0,0,0,.26,2.211l.058.231a2.25,2.25,0,0,0,.067.24c0,.01.01.019.01.029a6.075,6.075,0,0,0,.308.827c.038.087.077.173.115.25l.029.058a7.406,7.406,0,0,0,1,1.519c.01.01.019.029.029.038a10.837,10.837,0,0,0,.981,1.019,1.969,1.969,0,0,1,.413.538l.029.058a2.159,2.159,0,0,1,.192.76A.106.106,0,0,1,152.8,149.844Z" transform="translate(-129.7 -131.095)" fill="#636262"/>
      </g>
    </g>
  </g>
</svg>
